<mxfile host="app.diagrams.net" modified="2023-10-29T18:00:00.513Z" agent="Mozilla/5.0 (Windows NT 10.0; Win64; x64) AppleWebKit/537.36 (KHTML, like Gecko) Chrome/118.0.0.0 Safari/537.36" etag="QRkQUsWyvGYKkt319M68" version="22.0.8" type="device" pages="4">
  <diagram name="er diagram" id="7zhzAALN_aKy9Od7kebS">
    <mxGraphModel dx="1323" dy="2960" grid="1" gridSize="10" guides="1" tooltips="1" connect="1" arrows="1" fold="1" page="1" pageScale="1" pageWidth="850" pageHeight="1100" math="0" shadow="0">
      <root>
        <mxCell id="0" />
        <mxCell id="1" parent="0" />
        <mxCell id="xQpF8UU6rT9dju9DQIWK-2" value="&lt;font face=&quot;Verdana&quot; style=&quot;font-size: 12px;&quot;&gt;admin&lt;/font&gt;" style="whiteSpace=wrap;html=1;align=center;direction=west;labelBackgroundColor=none;fillColor=#FFFF99;" parent="1" vertex="1">
          <mxGeometry x="550" y="-90.5" width="100" height="40" as="geometry" />
        </mxCell>
        <mxCell id="xQpF8UU6rT9dju9DQIWK-5" value="&lt;font style=&quot;font-size: 14px;&quot;&gt;user_name&lt;/font&gt;" style="ellipse;whiteSpace=wrap;html=1;align=center;labelBackgroundColor=none;" parent="1" vertex="1">
          <mxGeometry x="375" y="-91" width="100" height="40" as="geometry" />
        </mxCell>
        <mxCell id="xQpF8UU6rT9dju9DQIWK-6" value="&lt;font style=&quot;font-size: 14px;&quot;&gt;admin ID&lt;/font&gt;" style="ellipse;whiteSpace=wrap;html=1;align=center;fontStyle=4;labelBackgroundColor=none;" parent="1" vertex="1">
          <mxGeometry x="550" y="-190.5" width="100" height="40" as="geometry" />
        </mxCell>
        <mxCell id="xQpF8UU6rT9dju9DQIWK-7" value="&lt;font style=&quot;font-size: 14px;&quot;&gt;password&lt;/font&gt;" style="ellipse;whiteSpace=wrap;html=1;align=center;labelBackgroundColor=none;" parent="1" vertex="1">
          <mxGeometry x="550" width="100" height="40" as="geometry" />
        </mxCell>
        <mxCell id="xQpF8UU6rT9dju9DQIWK-9" value="" style="endArrow=none;html=1;rounded=0;entryX=0.5;entryY=0;entryDx=0;entryDy=0;labelBackgroundColor=none;fontColor=default;exitX=0.5;exitY=0;exitDx=0;exitDy=0;" parent="1" source="xQpF8UU6rT9dju9DQIWK-7" target="xQpF8UU6rT9dju9DQIWK-2" edge="1">
          <mxGeometry relative="1" as="geometry">
            <mxPoint x="430" y="-40.5" as="sourcePoint" />
            <mxPoint x="590" y="-40.5" as="targetPoint" />
          </mxGeometry>
        </mxCell>
        <mxCell id="xQpF8UU6rT9dju9DQIWK-10" value="" style="endArrow=none;html=1;rounded=0;entryX=0.5;entryY=1;entryDx=0;entryDy=0;exitX=0.5;exitY=1;exitDx=0;exitDy=0;labelBackgroundColor=none;fontColor=default;" parent="1" source="xQpF8UU6rT9dju9DQIWK-2" target="xQpF8UU6rT9dju9DQIWK-6" edge="1">
          <mxGeometry relative="1" as="geometry">
            <mxPoint x="600" y="-101.5" as="sourcePoint" />
            <mxPoint x="760" y="-101.5" as="targetPoint" />
          </mxGeometry>
        </mxCell>
        <mxCell id="xQpF8UU6rT9dju9DQIWK-11" value="" style="endArrow=none;html=1;rounded=0;entryX=1;entryY=0.5;entryDx=0;entryDy=0;labelBackgroundColor=none;fontColor=default;exitX=1;exitY=0.5;exitDx=0;exitDy=0;" parent="1" source="xQpF8UU6rT9dju9DQIWK-5" target="xQpF8UU6rT9dju9DQIWK-2" edge="1">
          <mxGeometry relative="1" as="geometry">
            <mxPoint x="430" y="-100.5" as="sourcePoint" />
            <mxPoint x="590" y="-100.5" as="targetPoint" />
          </mxGeometry>
        </mxCell>
        <mxCell id="xQpF8UU6rT9dju9DQIWK-14" value="manage" style="shape=rhombus;perimeter=rhombusPerimeter;whiteSpace=wrap;html=1;align=center;labelBackgroundColor=none;fillColor=#FFCC99;" parent="1" vertex="1">
          <mxGeometry x="730" y="-100.5" width="120" height="60" as="geometry" />
        </mxCell>
        <mxCell id="xQpF8UU6rT9dju9DQIWK-19" value="web_application" style="whiteSpace=wrap;html=1;align=center;labelBackgroundColor=none;fillColor=#CCFFFF;" parent="1" vertex="1">
          <mxGeometry x="910" y="-91" width="100" height="40" as="geometry" />
        </mxCell>
        <mxCell id="xQpF8UU6rT9dju9DQIWK-20" value="web_name" style="ellipse;whiteSpace=wrap;html=1;align=center;labelBackgroundColor=none;" parent="1" vertex="1">
          <mxGeometry x="910" y="-190.5" width="100" height="40" as="geometry" />
        </mxCell>
        <mxCell id="xQpF8UU6rT9dju9DQIWK-22" value="" style="endArrow=none;html=1;rounded=0;entryX=0.5;entryY=0;entryDx=0;entryDy=0;labelBackgroundColor=none;fontColor=default;" parent="1" edge="1">
          <mxGeometry relative="1" as="geometry">
            <mxPoint x="960" y="-50.5" as="sourcePoint" />
            <mxPoint x="960" y="9.5" as="targetPoint" />
          </mxGeometry>
        </mxCell>
        <mxCell id="xQpF8UU6rT9dju9DQIWK-24" value="" style="endArrow=none;html=1;rounded=0;entryX=0.5;entryY=0;entryDx=0;entryDy=0;labelBackgroundColor=none;fontColor=default;" parent="1" edge="1">
          <mxGeometry relative="1" as="geometry">
            <mxPoint x="959.5" y="-150.5" as="sourcePoint" />
            <mxPoint x="959.5" y="-90.5" as="targetPoint" />
          </mxGeometry>
        </mxCell>
        <mxCell id="xQpF8UU6rT9dju9DQIWK-26" value="has" style="shape=rhombus;perimeter=rhombusPerimeter;whiteSpace=wrap;html=1;align=center;labelBackgroundColor=none;fillColor=#FFCC99;" parent="1" vertex="1">
          <mxGeometry x="1070" y="-100.5" width="120" height="60" as="geometry" />
        </mxCell>
        <mxCell id="xQpF8UU6rT9dju9DQIWK-27" value="" style="endArrow=none;html=1;rounded=0;labelBackgroundColor=none;fontColor=default;" parent="1" edge="1">
          <mxGeometry relative="1" as="geometry">
            <mxPoint x="650" y="-70.5" as="sourcePoint" />
            <mxPoint x="730" y="-71" as="targetPoint" />
          </mxGeometry>
        </mxCell>
        <mxCell id="xQpF8UU6rT9dju9DQIWK-28" value="1" style="resizable=0;html=1;whiteSpace=wrap;align=right;verticalAlign=bottom;labelBackgroundColor=none;" parent="xQpF8UU6rT9dju9DQIWK-27" connectable="0" vertex="1">
          <mxGeometry x="1" relative="1" as="geometry" />
        </mxCell>
        <mxCell id="xQpF8UU6rT9dju9DQIWK-29" value="" style="endArrow=none;html=1;rounded=0;exitX=1;exitY=0.5;exitDx=0;exitDy=0;labelBackgroundColor=none;fontColor=default;" parent="1" source="xQpF8UU6rT9dju9DQIWK-14" edge="1">
          <mxGeometry relative="1" as="geometry">
            <mxPoint x="830" y="-70.5" as="sourcePoint" />
            <mxPoint x="910" y="-71" as="targetPoint" />
          </mxGeometry>
        </mxCell>
        <mxCell id="xQpF8UU6rT9dju9DQIWK-30" value="1" style="resizable=0;html=1;whiteSpace=wrap;align=right;verticalAlign=bottom;labelBackgroundColor=none;" parent="xQpF8UU6rT9dju9DQIWK-29" connectable="0" vertex="1">
          <mxGeometry x="1" relative="1" as="geometry" />
        </mxCell>
        <mxCell id="xQpF8UU6rT9dju9DQIWK-31" value="" style="endArrow=none;html=1;rounded=0;labelBackgroundColor=none;fontColor=default;" parent="1" edge="1">
          <mxGeometry relative="1" as="geometry">
            <mxPoint x="1010" y="-70.5" as="sourcePoint" />
            <mxPoint x="1070" y="-71" as="targetPoint" />
          </mxGeometry>
        </mxCell>
        <mxCell id="xQpF8UU6rT9dju9DQIWK-32" value="1" style="resizable=0;html=1;whiteSpace=wrap;align=right;verticalAlign=bottom;labelBackgroundColor=none;" parent="xQpF8UU6rT9dju9DQIWK-31" connectable="0" vertex="1">
          <mxGeometry x="1" relative="1" as="geometry" />
        </mxCell>
        <mxCell id="xQpF8UU6rT9dju9DQIWK-33" value="" style="endArrow=none;html=1;rounded=0;labelBackgroundColor=none;fontColor=default;" parent="1" target="xQpF8UU6rT9dju9DQIWK-35" edge="1">
          <mxGeometry relative="1" as="geometry">
            <mxPoint x="1190" y="-70" as="sourcePoint" />
            <mxPoint x="1250" y="-70.5" as="targetPoint" />
          </mxGeometry>
        </mxCell>
        <mxCell id="xQpF8UU6rT9dju9DQIWK-34" value="N" style="resizable=0;html=1;whiteSpace=wrap;align=right;verticalAlign=bottom;labelBackgroundColor=none;" parent="xQpF8UU6rT9dju9DQIWK-33" connectable="0" vertex="1">
          <mxGeometry x="1" relative="1" as="geometry" />
        </mxCell>
        <mxCell id="xQpF8UU6rT9dju9DQIWK-35" value="product category" style="whiteSpace=wrap;html=1;align=center;labelBackgroundColor=none;fillColor=#FFFF99;" parent="1" vertex="1">
          <mxGeometry x="1240" y="-90.5" width="100" height="40" as="geometry" />
        </mxCell>
        <mxCell id="xQpF8UU6rT9dju9DQIWK-36" value="" style="endArrow=none;html=1;rounded=0;entryX=0.5;entryY=0;entryDx=0;entryDy=0;labelBackgroundColor=none;fontColor=default;" parent="1" edge="1">
          <mxGeometry relative="1" as="geometry">
            <mxPoint x="1289.5" y="-150.5" as="sourcePoint" />
            <mxPoint x="1289.5" y="-90.5" as="targetPoint" />
          </mxGeometry>
        </mxCell>
        <mxCell id="xQpF8UU6rT9dju9DQIWK-37" value="" style="endArrow=none;html=1;rounded=0;entryX=0.5;entryY=0;entryDx=0;entryDy=0;labelBackgroundColor=none;fontColor=default;" parent="1" edge="1">
          <mxGeometry relative="1" as="geometry">
            <mxPoint x="1289.5" y="-50" as="sourcePoint" />
            <mxPoint x="1289.5" y="10" as="targetPoint" />
          </mxGeometry>
        </mxCell>
        <mxCell id="xQpF8UU6rT9dju9DQIWK-38" value="category_name" style="ellipse;whiteSpace=wrap;html=1;align=center;labelBackgroundColor=none;" parent="1" vertex="1">
          <mxGeometry x="1240" width="100" height="40" as="geometry" />
        </mxCell>
        <mxCell id="xQpF8UU6rT9dju9DQIWK-41" value="web_url" style="ellipse;whiteSpace=wrap;html=1;align=center;fontStyle=4;labelBackgroundColor=none;" parent="1" vertex="1">
          <mxGeometry x="910" y="9.5" width="100" height="40" as="geometry" />
        </mxCell>
        <mxCell id="xQpF8UU6rT9dju9DQIWK-43" value="category ID" style="ellipse;whiteSpace=wrap;html=1;align=center;fontStyle=4;labelBackgroundColor=none;" parent="1" vertex="1">
          <mxGeometry x="1240" y="-170" width="100" height="40" as="geometry" />
        </mxCell>
        <mxCell id="xQpF8UU6rT9dju9DQIWK-44" value="has" style="shape=rhombus;perimeter=rhombusPerimeter;whiteSpace=wrap;html=1;align=center;labelBackgroundColor=none;fillColor=#FFCC99;" parent="1" vertex="1">
          <mxGeometry x="1410" y="-100" width="120" height="60" as="geometry" />
        </mxCell>
        <mxCell id="xQpF8UU6rT9dju9DQIWK-45" value="" style="endArrow=none;html=1;rounded=0;labelBackgroundColor=none;fontColor=default;" parent="1" edge="1">
          <mxGeometry relative="1" as="geometry">
            <mxPoint x="1340" y="-70" as="sourcePoint" />
            <mxPoint x="1410" y="-70.32999999999998" as="targetPoint" />
          </mxGeometry>
        </mxCell>
        <mxCell id="xQpF8UU6rT9dju9DQIWK-46" value="1" style="resizable=0;html=1;whiteSpace=wrap;align=right;verticalAlign=bottom;labelBackgroundColor=none;" parent="xQpF8UU6rT9dju9DQIWK-45" connectable="0" vertex="1">
          <mxGeometry x="1" relative="1" as="geometry" />
        </mxCell>
        <mxCell id="xQpF8UU6rT9dju9DQIWK-47" value="" style="endArrow=none;html=1;rounded=0;entryX=0;entryY=0.5;entryDx=0;entryDy=0;labelBackgroundColor=none;fontColor=default;" parent="1" target="xQpF8UU6rT9dju9DQIWK-49" edge="1">
          <mxGeometry relative="1" as="geometry">
            <mxPoint x="1530" y="-70.32" as="sourcePoint" />
            <mxPoint x="1610" y="-70" as="targetPoint" />
          </mxGeometry>
        </mxCell>
        <mxCell id="xQpF8UU6rT9dju9DQIWK-48" value="N" style="resizable=0;html=1;whiteSpace=wrap;align=right;verticalAlign=bottom;labelBackgroundColor=none;" parent="xQpF8UU6rT9dju9DQIWK-47" connectable="0" vertex="1">
          <mxGeometry x="1" relative="1" as="geometry" />
        </mxCell>
        <mxCell id="xQpF8UU6rT9dju9DQIWK-49" value="products" style="whiteSpace=wrap;html=1;align=center;labelBackgroundColor=none;fillColor=#FFFF99;" parent="1" vertex="1">
          <mxGeometry x="1650" y="-90" width="100" height="40" as="geometry" />
        </mxCell>
        <mxCell id="xQpF8UU6rT9dju9DQIWK-50" value="added to" style="shape=rhombus;perimeter=rhombusPerimeter;whiteSpace=wrap;html=1;align=center;labelBackgroundColor=none;fillColor=#FFCC99;" parent="1" vertex="1">
          <mxGeometry x="1640" y="-300" width="120" height="60" as="geometry" />
        </mxCell>
        <mxCell id="xQpF8UU6rT9dju9DQIWK-51" value="" style="endArrow=none;html=1;rounded=0;exitX=0.5;exitY=1;exitDx=0;exitDy=0;entryX=0.5;entryY=0;entryDx=0;entryDy=0;labelBackgroundColor=none;fontColor=default;" parent="1" source="xQpF8UU6rT9dju9DQIWK-50" target="xQpF8UU6rT9dju9DQIWK-49" edge="1">
          <mxGeometry relative="1" as="geometry">
            <mxPoint x="1530" y="-110" as="sourcePoint" />
            <mxPoint x="1690" y="-110" as="targetPoint" />
          </mxGeometry>
        </mxCell>
        <mxCell id="xQpF8UU6rT9dju9DQIWK-52" value="N" style="resizable=0;html=1;whiteSpace=wrap;align=right;verticalAlign=bottom;labelBackgroundColor=none;" parent="xQpF8UU6rT9dju9DQIWK-51" connectable="0" vertex="1">
          <mxGeometry x="1" relative="1" as="geometry" />
        </mxCell>
        <mxCell id="xQpF8UU6rT9dju9DQIWK-53" value="" style="endArrow=none;html=1;rounded=0;labelBackgroundColor=none;fontColor=default;" parent="1" edge="1">
          <mxGeometry relative="1" as="geometry">
            <mxPoint x="1699.58" y="-390" as="sourcePoint" />
            <mxPoint x="1699.58" y="-300" as="targetPoint" />
          </mxGeometry>
        </mxCell>
        <mxCell id="xQpF8UU6rT9dju9DQIWK-54" value="1" style="resizable=0;html=1;whiteSpace=wrap;align=right;verticalAlign=bottom;labelBackgroundColor=none;" parent="xQpF8UU6rT9dju9DQIWK-53" connectable="0" vertex="1">
          <mxGeometry x="1" relative="1" as="geometry" />
        </mxCell>
        <mxCell id="xQpF8UU6rT9dju9DQIWK-55" value="cart" style="whiteSpace=wrap;html=1;align=center;labelBackgroundColor=none;fillColor=#FFFF99;" parent="1" vertex="1">
          <mxGeometry x="1650" y="-430" width="100" height="40" as="geometry" />
        </mxCell>
        <mxCell id="xQpF8UU6rT9dju9DQIWK-56" value="supplier" style="whiteSpace=wrap;html=1;align=center;labelBackgroundColor=none;fillColor=#FFFF99;" parent="1" vertex="1">
          <mxGeometry x="1010" y="-1200" width="100" height="40" as="geometry" />
        </mxCell>
        <mxCell id="xQpF8UU6rT9dju9DQIWK-57" value="supplies" style="shape=rhombus;perimeter=rhombusPerimeter;whiteSpace=wrap;html=1;align=center;labelBackgroundColor=none;fillColor=#FFCC99;" parent="1" vertex="1">
          <mxGeometry x="1270" y="-1100" width="120" height="60" as="geometry" />
        </mxCell>
        <mxCell id="xQpF8UU6rT9dju9DQIWK-58" value="" style="endArrow=none;html=1;rounded=0;entryX=0;entryY=0.5;entryDx=0;entryDy=0;exitX=1;exitY=1;exitDx=0;exitDy=0;labelBackgroundColor=none;fontColor=default;" parent="1" source="xQpF8UU6rT9dju9DQIWK-56" target="xQpF8UU6rT9dju9DQIWK-57" edge="1">
          <mxGeometry relative="1" as="geometry">
            <mxPoint x="1220" y="-520" as="sourcePoint" />
            <mxPoint x="1380" y="-520" as="targetPoint" />
          </mxGeometry>
        </mxCell>
        <mxCell id="xQpF8UU6rT9dju9DQIWK-59" value="1" style="resizable=0;html=1;whiteSpace=wrap;align=right;verticalAlign=bottom;labelBackgroundColor=none;" parent="xQpF8UU6rT9dju9DQIWK-58" connectable="0" vertex="1">
          <mxGeometry x="1" relative="1" as="geometry" />
        </mxCell>
        <mxCell id="xQpF8UU6rT9dju9DQIWK-62" value="" style="endArrow=none;html=1;rounded=0;entryX=0.5;entryY=0;entryDx=0;entryDy=0;exitX=1;exitY=0.5;exitDx=0;exitDy=0;labelBackgroundColor=none;fontColor=default;" parent="1" edge="1">
          <mxGeometry relative="1" as="geometry">
            <mxPoint x="1390" y="-1070" as="sourcePoint" />
            <mxPoint x="1540" y="-960" as="targetPoint" />
          </mxGeometry>
        </mxCell>
        <mxCell id="xQpF8UU6rT9dju9DQIWK-63" value="N" style="resizable=0;html=1;whiteSpace=wrap;align=right;verticalAlign=bottom;labelBackgroundColor=none;" parent="xQpF8UU6rT9dju9DQIWK-62" connectable="0" vertex="1">
          <mxGeometry x="1" relative="1" as="geometry" />
        </mxCell>
        <mxCell id="xQpF8UU6rT9dju9DQIWK-64" value="contains" style="shape=rhombus;perimeter=rhombusPerimeter;whiteSpace=wrap;html=1;align=center;labelBackgroundColor=none;fillColor=#FFCC99;" parent="1" vertex="1">
          <mxGeometry x="1640" y="150" width="120" height="60" as="geometry" />
        </mxCell>
        <mxCell id="xQpF8UU6rT9dju9DQIWK-65" value="" style="endArrow=none;html=1;rounded=0;exitX=0.5;exitY=1;exitDx=0;exitDy=0;entryX=0.5;entryY=0;entryDx=0;entryDy=0;labelBackgroundColor=none;fontColor=default;" parent="1" source="xQpF8UU6rT9dju9DQIWK-49" target="xQpF8UU6rT9dju9DQIWK-64" edge="1">
          <mxGeometry relative="1" as="geometry">
            <mxPoint x="1659.57" y="230" as="sourcePoint" />
            <mxPoint x="1660" y="140" as="targetPoint" />
          </mxGeometry>
        </mxCell>
        <mxCell id="xQpF8UU6rT9dju9DQIWK-66" value="N" style="resizable=0;html=1;whiteSpace=wrap;align=right;verticalAlign=bottom;labelBackgroundColor=none;" parent="xQpF8UU6rT9dju9DQIWK-65" connectable="0" vertex="1">
          <mxGeometry x="1" relative="1" as="geometry" />
        </mxCell>
        <mxCell id="xQpF8UU6rT9dju9DQIWK-67" value="" style="endArrow=none;html=1;rounded=0;labelBackgroundColor=none;fontColor=default;" parent="1" edge="1">
          <mxGeometry relative="1" as="geometry">
            <mxPoint x="1699.58" y="210" as="sourcePoint" />
            <mxPoint x="1700" y="280" as="targetPoint" />
          </mxGeometry>
        </mxCell>
        <mxCell id="xQpF8UU6rT9dju9DQIWK-68" value="1" style="resizable=0;html=1;whiteSpace=wrap;align=right;verticalAlign=bottom;labelBackgroundColor=none;" parent="xQpF8UU6rT9dju9DQIWK-67" connectable="0" vertex="1">
          <mxGeometry x="1" relative="1" as="geometry" />
        </mxCell>
        <mxCell id="xQpF8UU6rT9dju9DQIWK-69" value="order" style="whiteSpace=wrap;html=1;align=center;labelBackgroundColor=none;fillColor=#FFFF99;" parent="1" vertex="1">
          <mxGeometry x="1650" y="270" width="100" height="40" as="geometry" />
        </mxCell>
        <mxCell id="xQpF8UU6rT9dju9DQIWK-70" value="make" style="shape=rhombus;perimeter=rhombusPerimeter;whiteSpace=wrap;html=1;align=center;labelBackgroundColor=none;fillColor=#FFCC99;" parent="1" vertex="1">
          <mxGeometry x="1440" y="260" width="120" height="60" as="geometry" />
        </mxCell>
        <mxCell id="xQpF8UU6rT9dju9DQIWK-71" value="" style="endArrow=none;html=1;rounded=0;entryX=0;entryY=0.5;entryDx=0;entryDy=0;labelBackgroundColor=none;fontColor=default;exitX=1;exitY=0.5;exitDx=0;exitDy=0;" parent="1" source="xQpF8UU6rT9dju9DQIWK-70" target="xQpF8UU6rT9dju9DQIWK-69" edge="1">
          <mxGeometry relative="1" as="geometry">
            <mxPoint x="1500" y="350" as="sourcePoint" />
            <mxPoint x="1595" y="349.54999999999995" as="targetPoint" />
          </mxGeometry>
        </mxCell>
        <mxCell id="xQpF8UU6rT9dju9DQIWK-72" value="N" style="resizable=0;html=1;whiteSpace=wrap;align=right;verticalAlign=bottom;labelBackgroundColor=none;" parent="xQpF8UU6rT9dju9DQIWK-71" connectable="0" vertex="1">
          <mxGeometry x="1" relative="1" as="geometry" />
        </mxCell>
        <mxCell id="xQpF8UU6rT9dju9DQIWK-74" value="" style="endArrow=none;html=1;rounded=0;labelBackgroundColor=none;fontColor=default;exitX=1;exitY=0.5;exitDx=0;exitDy=0;" parent="1" source="xQpF8UU6rT9dju9DQIWK-73" target="xQpF8UU6rT9dju9DQIWK-70" edge="1">
          <mxGeometry relative="1" as="geometry">
            <mxPoint x="1120" y="289.54999999999995" as="sourcePoint" />
            <mxPoint x="1440" y="240" as="targetPoint" />
          </mxGeometry>
        </mxCell>
        <mxCell id="xQpF8UU6rT9dju9DQIWK-75" value="1" style="resizable=0;html=1;whiteSpace=wrap;align=right;verticalAlign=bottom;labelBackgroundColor=none;" parent="xQpF8UU6rT9dju9DQIWK-74" connectable="0" vertex="1">
          <mxGeometry x="1" relative="1" as="geometry" />
        </mxCell>
        <mxCell id="xQpF8UU6rT9dju9DQIWK-77" value="" style="endArrow=none;html=1;rounded=0;entryX=0;entryY=0.5;entryDx=0;entryDy=0;labelBackgroundColor=none;fontColor=default;" parent="1" source="xQpF8UU6rT9dju9DQIWK-76" target="xQpF8UU6rT9dju9DQIWK-73" edge="1">
          <mxGeometry relative="1" as="geometry">
            <mxPoint x="830" y="289.54999999999995" as="sourcePoint" />
            <mxPoint x="990" y="289.54999999999995" as="targetPoint" />
          </mxGeometry>
        </mxCell>
        <mxCell id="xQpF8UU6rT9dju9DQIWK-78" value="1" style="resizable=0;html=1;whiteSpace=wrap;align=right;verticalAlign=bottom;labelBackgroundColor=none;" parent="xQpF8UU6rT9dju9DQIWK-77" connectable="0" vertex="1">
          <mxGeometry x="1" relative="1" as="geometry" />
        </mxCell>
        <mxCell id="xQpF8UU6rT9dju9DQIWK-84" value="" style="endArrow=none;html=1;rounded=0;exitX=1;exitY=0.5;exitDx=0;exitDy=0;labelBackgroundColor=none;fontColor=default;" parent="1" source="xQpF8UU6rT9dju9DQIWK-86" edge="1">
          <mxGeometry relative="1" as="geometry">
            <mxPoint x="620" y="290.03" as="sourcePoint" />
            <mxPoint x="790" y="289.5799999999999" as="targetPoint" />
          </mxGeometry>
        </mxCell>
        <mxCell id="xQpF8UU6rT9dju9DQIWK-85" value="N" style="resizable=0;html=1;whiteSpace=wrap;align=right;verticalAlign=bottom;labelBackgroundColor=none;" parent="xQpF8UU6rT9dju9DQIWK-84" connectable="0" vertex="1">
          <mxGeometry x="1" relative="1" as="geometry" />
        </mxCell>
        <mxCell id="xQpF8UU6rT9dju9DQIWK-86" value="payment" style="whiteSpace=wrap;html=1;align=center;labelBackgroundColor=none;fillColor=#FFFF99;" parent="1" vertex="1">
          <mxGeometry x="615" y="270" width="100" height="40" as="geometry" />
        </mxCell>
        <mxCell id="xQpF8UU6rT9dju9DQIWK-88" value="" style="endArrow=none;html=1;rounded=0;entryX=0;entryY=0.5;entryDx=0;entryDy=0;labelBackgroundColor=none;fontColor=default;" parent="1" target="xQpF8UU6rT9dju9DQIWK-73" edge="1">
          <mxGeometry relative="1" as="geometry">
            <mxPoint x="1120" y="289.54999999999995" as="sourcePoint" />
            <mxPoint x="1380" y="290" as="targetPoint" />
          </mxGeometry>
        </mxCell>
        <mxCell id="xQpF8UU6rT9dju9DQIWK-73" value="customer" style="whiteSpace=wrap;html=1;align=center;labelBackgroundColor=none;fillColor=#FFFF99;" parent="1" vertex="1">
          <mxGeometry x="1100" y="270" width="100" height="40" as="geometry" />
        </mxCell>
        <mxCell id="xQpF8UU6rT9dju9DQIWK-90" value="" style="endArrow=none;html=1;rounded=0;entryX=0;entryY=0.5;entryDx=0;entryDy=0;labelBackgroundColor=none;fontColor=default;" parent="1" target="xQpF8UU6rT9dju9DQIWK-76" edge="1">
          <mxGeometry relative="1" as="geometry">
            <mxPoint x="830" y="289.54999999999995" as="sourcePoint" />
            <mxPoint x="1100" y="290" as="targetPoint" />
          </mxGeometry>
        </mxCell>
        <mxCell id="xQpF8UU6rT9dju9DQIWK-76" value="make" style="shape=rhombus;perimeter=rhombusPerimeter;whiteSpace=wrap;html=1;align=center;labelBackgroundColor=none;fillColor=#FFCC99;" parent="1" vertex="1">
          <mxGeometry x="790" y="260" width="120" height="60" as="geometry" />
        </mxCell>
        <mxCell id="xQpF8UU6rT9dju9DQIWK-93" value="product_name" style="ellipse;whiteSpace=wrap;html=1;align=center;labelBackgroundColor=none;" parent="1" vertex="1">
          <mxGeometry x="1860" y="-160" width="100" height="40" as="geometry" />
        </mxCell>
        <mxCell id="xQpF8UU6rT9dju9DQIWK-94" value="product_des" style="ellipse;whiteSpace=wrap;html=1;align=center;labelBackgroundColor=none;" parent="1" vertex="1">
          <mxGeometry x="1910" y="-40.5" width="100" height="40" as="geometry" />
        </mxCell>
        <mxCell id="xQpF8UU6rT9dju9DQIWK-95" value="product_price" style="ellipse;whiteSpace=wrap;html=1;align=center;labelBackgroundColor=none;" parent="1" vertex="1">
          <mxGeometry x="1780" y="49.5" width="100" height="40" as="geometry" />
        </mxCell>
        <mxCell id="xQpF8UU6rT9dju9DQIWK-97" value="product_specifications" style="ellipse;whiteSpace=wrap;html=1;align=center;labelBackgroundColor=none;" parent="1" vertex="1">
          <mxGeometry x="1460" y="-0.5" width="130" height="40" as="geometry" />
        </mxCell>
        <mxCell id="xQpF8UU6rT9dju9DQIWK-101" value="product_brand" style="ellipse;whiteSpace=wrap;html=1;align=center;labelBackgroundColor=none;" parent="1" vertex="1">
          <mxGeometry x="1550" y="-210" width="100" height="40" as="geometry" />
        </mxCell>
        <mxCell id="xQpF8UU6rT9dju9DQIWK-102" value="product_ID" style="ellipse;whiteSpace=wrap;html=1;align=center;fontStyle=4;labelBackgroundColor=none;" parent="1" vertex="1">
          <mxGeometry x="1730" y="-220" width="100" height="40" as="geometry" />
        </mxCell>
        <mxCell id="xQpF8UU6rT9dju9DQIWK-103" value="product_images" style="ellipse;shape=doubleEllipse;margin=3;whiteSpace=wrap;html=1;align=center;labelBackgroundColor=none;" parent="1" vertex="1">
          <mxGeometry x="1575" y="60" width="100" height="40" as="geometry" />
        </mxCell>
        <mxCell id="xQpF8UU6rT9dju9DQIWK-107" value="" style="endArrow=none;html=1;rounded=0;exitX=0;exitY=0.75;exitDx=0;exitDy=0;entryX=0.5;entryY=0;entryDx=0;entryDy=0;labelBackgroundColor=none;fontColor=default;" parent="1" source="xQpF8UU6rT9dju9DQIWK-49" target="xQpF8UU6rT9dju9DQIWK-97" edge="1">
          <mxGeometry relative="1" as="geometry">
            <mxPoint x="1710" y="-40" as="sourcePoint" />
            <mxPoint x="1870" y="-40" as="targetPoint" />
          </mxGeometry>
        </mxCell>
        <mxCell id="xQpF8UU6rT9dju9DQIWK-108" value="" style="endArrow=none;html=1;rounded=0;exitX=0.5;exitY=1;exitDx=0;exitDy=0;entryX=0.25;entryY=0;entryDx=0;entryDy=0;labelBackgroundColor=none;fontColor=default;" parent="1" source="xQpF8UU6rT9dju9DQIWK-101" target="xQpF8UU6rT9dju9DQIWK-49" edge="1">
          <mxGeometry relative="1" as="geometry">
            <mxPoint x="1670" y="-150" as="sourcePoint" />
            <mxPoint x="1830" y="-150" as="targetPoint" />
          </mxGeometry>
        </mxCell>
        <mxCell id="xQpF8UU6rT9dju9DQIWK-109" value="" style="endArrow=none;html=1;rounded=0;exitX=0.5;exitY=0;exitDx=0;exitDy=0;entryX=0.25;entryY=1;entryDx=0;entryDy=0;labelBackgroundColor=none;fontColor=default;" parent="1" source="xQpF8UU6rT9dju9DQIWK-103" target="xQpF8UU6rT9dju9DQIWK-49" edge="1">
          <mxGeometry relative="1" as="geometry">
            <mxPoint x="1960" y="29.58000000000004" as="sourcePoint" />
            <mxPoint x="2120" y="29.58000000000004" as="targetPoint" />
          </mxGeometry>
        </mxCell>
        <mxCell id="xQpF8UU6rT9dju9DQIWK-110" value="" style="endArrow=none;html=1;rounded=0;exitX=0.75;exitY=1;exitDx=0;exitDy=0;labelBackgroundColor=none;fontColor=default;entryX=0.5;entryY=0;entryDx=0;entryDy=0;" parent="1" source="xQpF8UU6rT9dju9DQIWK-49" target="xQpF8UU6rT9dju9DQIWK-95" edge="1">
          <mxGeometry relative="1" as="geometry">
            <mxPoint x="1690" y="-30.91999999999996" as="sourcePoint" />
            <mxPoint x="1850" y="-30.91999999999996" as="targetPoint" />
          </mxGeometry>
        </mxCell>
        <mxCell id="xQpF8UU6rT9dju9DQIWK-112" value="" style="endArrow=none;html=1;rounded=0;exitX=1;exitY=0.25;exitDx=0;exitDy=0;labelBackgroundColor=none;fontColor=default;entryX=0;entryY=0.5;entryDx=0;entryDy=0;" parent="1" source="xQpF8UU6rT9dju9DQIWK-49" target="xQpF8UU6rT9dju9DQIWK-93" edge="1">
          <mxGeometry relative="1" as="geometry">
            <mxPoint x="1690" y="-170" as="sourcePoint" />
            <mxPoint x="1850" y="-170" as="targetPoint" />
          </mxGeometry>
        </mxCell>
        <mxCell id="xQpF8UU6rT9dju9DQIWK-113" value="" style="endArrow=none;html=1;rounded=0;exitX=0.5;exitY=1;exitDx=0;exitDy=0;entryX=0.65;entryY=0.033;entryDx=0;entryDy=0;entryPerimeter=0;labelBackgroundColor=none;fontColor=default;" parent="1" source="xQpF8UU6rT9dju9DQIWK-102" target="xQpF8UU6rT9dju9DQIWK-49" edge="1">
          <mxGeometry relative="1" as="geometry">
            <mxPoint x="1820" y="-250" as="sourcePoint" />
            <mxPoint x="1980" y="-250" as="targetPoint" />
          </mxGeometry>
        </mxCell>
        <mxCell id="xQpF8UU6rT9dju9DQIWK-114" value="" style="endArrow=none;html=1;rounded=0;exitX=1;exitY=0.75;exitDx=0;exitDy=0;labelBackgroundColor=none;fontColor=default;entryX=0;entryY=0.5;entryDx=0;entryDy=0;" parent="1" source="xQpF8UU6rT9dju9DQIWK-49" target="xQpF8UU6rT9dju9DQIWK-94" edge="1">
          <mxGeometry relative="1" as="geometry">
            <mxPoint x="1750" y="-70" as="sourcePoint" />
            <mxPoint x="1910" y="-10.5" as="targetPoint" />
          </mxGeometry>
        </mxCell>
        <mxCell id="xQpF8UU6rT9dju9DQIWK-123" value="quantity" style="ellipse;whiteSpace=wrap;html=1;align=center;labelBackgroundColor=none;" parent="1" vertex="1">
          <mxGeometry x="1800" y="-430" width="100" height="40" as="geometry" />
        </mxCell>
        <mxCell id="xQpF8UU6rT9dju9DQIWK-124" value="product_ID" style="ellipse;whiteSpace=wrap;html=1;align=center;fontStyle=4;labelBackgroundColor=none;" parent="1" vertex="1">
          <mxGeometry x="1500" y="-430" width="100" height="40" as="geometry" />
        </mxCell>
        <mxCell id="xQpF8UU6rT9dju9DQIWK-125" value="" style="line;strokeWidth=1;rotatable=0;dashed=0;labelPosition=right;align=left;verticalAlign=middle;spacingTop=0;spacingLeft=6;points=[];portConstraint=eastwest;labelBackgroundColor=none;" parent="1" vertex="1">
          <mxGeometry x="1600" y="-415" width="50" height="10" as="geometry" />
        </mxCell>
        <mxCell id="xQpF8UU6rT9dju9DQIWK-126" value="" style="line;strokeWidth=1;rotatable=0;dashed=0;labelPosition=right;align=left;verticalAlign=middle;spacingTop=0;spacingLeft=6;points=[];portConstraint=eastwest;labelBackgroundColor=none;" parent="1" vertex="1">
          <mxGeometry x="1750" y="-415" width="50" height="10" as="geometry" />
        </mxCell>
        <mxCell id="xQpF8UU6rT9dju9DQIWK-129" value="" style="line;strokeWidth=1;rotatable=0;dashed=0;labelPosition=right;align=left;verticalAlign=middle;spacingTop=0;spacingLeft=6;points=[];portConstraint=eastwest;labelBackgroundColor=none;" parent="1" vertex="1">
          <mxGeometry x="1110" y="-1185" width="100" height="10" as="geometry" />
        </mxCell>
        <mxCell id="xQpF8UU6rT9dju9DQIWK-131" value="" style="line;strokeWidth=1;rotatable=0;dashed=0;labelPosition=right;align=left;verticalAlign=middle;spacingTop=0;spacingLeft=6;points=[];portConstraint=eastwest;labelBackgroundColor=none;" parent="1" vertex="1">
          <mxGeometry x="760" y="-1185" width="80" height="10" as="geometry" />
        </mxCell>
        <mxCell id="xQpF8UU6rT9dju9DQIWK-132" value="" style="line;strokeWidth=1;rotatable=0;dashed=0;labelPosition=right;align=left;verticalAlign=middle;spacingTop=0;spacingLeft=6;points=[];portConstraint=eastwest;labelBackgroundColor=none;" parent="1" vertex="1">
          <mxGeometry x="890" y="-1185" width="120" height="10" as="geometry" />
        </mxCell>
        <mxCell id="xQpF8UU6rT9dju9DQIWK-133" value="supplier_ID" style="ellipse;whiteSpace=wrap;html=1;align=center;fontStyle=4;labelBackgroundColor=none;" parent="1" vertex="1">
          <mxGeometry x="1210" y="-1200" width="100" height="40" as="geometry" />
        </mxCell>
        <mxCell id="xQpF8UU6rT9dju9DQIWK-134" value="address" style="ellipse;whiteSpace=wrap;html=1;align=center;labelBackgroundColor=none;" parent="1" vertex="1">
          <mxGeometry x="840" y="-1200" width="100" height="40" as="geometry" />
        </mxCell>
        <mxCell id="xQpF8UU6rT9dju9DQIWK-136" value="" style="endArrow=none;html=1;rounded=0;exitX=0.5;exitY=0;exitDx=0;exitDy=0;labelBackgroundColor=none;fontColor=default;" parent="1" source="xQpF8UU6rT9dju9DQIWK-137" edge="1">
          <mxGeometry relative="1" as="geometry">
            <mxPoint x="1670" y="-470" as="sourcePoint" />
            <mxPoint x="1700" y="-500" as="targetPoint" />
          </mxGeometry>
        </mxCell>
        <mxCell id="xQpF8UU6rT9dju9DQIWK-138" value="state" style="ellipse;whiteSpace=wrap;html=1;align=center;labelBackgroundColor=none;" parent="1" vertex="1">
          <mxGeometry x="840" y="-1275" width="100" height="40" as="geometry" />
        </mxCell>
        <mxCell id="xQpF8UU6rT9dju9DQIWK-139" value="&lt;font style=&quot;font-size: 14px;&quot;&gt;pin_code&lt;/font&gt;" style="ellipse;whiteSpace=wrap;html=1;align=center;labelBackgroundColor=none;" parent="1" vertex="1">
          <mxGeometry x="690" y="-1200" width="100" height="40" as="geometry" />
        </mxCell>
        <mxCell id="xQpF8UU6rT9dju9DQIWK-140" value="house_no" style="ellipse;whiteSpace=wrap;html=1;align=center;labelBackgroundColor=none;" parent="1" vertex="1">
          <mxGeometry x="840" y="-1120" width="100" height="40" as="geometry" />
        </mxCell>
        <mxCell id="xQpF8UU6rT9dju9DQIWK-145" value="" style="endArrow=none;html=1;rounded=0;entryX=0.5;entryY=1;entryDx=0;entryDy=0;exitX=0.5;exitY=0;exitDx=0;exitDy=0;labelBackgroundColor=none;fontColor=default;" parent="1" source="xQpF8UU6rT9dju9DQIWK-134" target="xQpF8UU6rT9dju9DQIWK-138" edge="1">
          <mxGeometry relative="1" as="geometry">
            <mxPoint x="800" y="-1210" as="sourcePoint" />
            <mxPoint x="960" y="-1210" as="targetPoint" />
          </mxGeometry>
        </mxCell>
        <mxCell id="xQpF8UU6rT9dju9DQIWK-146" value="" style="endArrow=none;html=1;rounded=0;entryX=0.5;entryY=1;entryDx=0;entryDy=0;exitX=0.5;exitY=0;exitDx=0;exitDy=0;labelBackgroundColor=none;fontColor=default;" parent="1" source="xQpF8UU6rT9dju9DQIWK-140" target="xQpF8UU6rT9dju9DQIWK-134" edge="1">
          <mxGeometry relative="1" as="geometry">
            <mxPoint x="800" y="-1110" as="sourcePoint" />
            <mxPoint x="960" y="-1110" as="targetPoint" />
          </mxGeometry>
        </mxCell>
        <mxCell id="xQpF8UU6rT9dju9DQIWK-148" value="" style="endArrow=none;html=1;rounded=0;entryX=0.5;entryY=1;entryDx=0;entryDy=0;labelBackgroundColor=none;fontColor=default;" parent="1" source="xQpF8UU6rT9dju9DQIWK-147" edge="1">
          <mxGeometry relative="1" as="geometry">
            <mxPoint x="1059.5700000000002" y="-1200" as="sourcePoint" />
            <mxPoint x="1059.5700000000002" y="-1284.13" as="targetPoint" />
          </mxGeometry>
        </mxCell>
        <mxCell id="xQpF8UU6rT9dju9DQIWK-149" value="first_name" style="ellipse;whiteSpace=wrap;html=1;align=center;labelBackgroundColor=none;" parent="1" vertex="1">
          <mxGeometry x="870" y="-1350" width="100" height="40" as="geometry" />
        </mxCell>
        <mxCell id="xQpF8UU6rT9dju9DQIWK-150" value="middle_name" style="ellipse;whiteSpace=wrap;html=1;align=center;labelBackgroundColor=none;" parent="1" vertex="1">
          <mxGeometry x="1010" y="-1390" width="100" height="40" as="geometry" />
        </mxCell>
        <mxCell id="xQpF8UU6rT9dju9DQIWK-151" value="last_name" style="ellipse;whiteSpace=wrap;html=1;align=center;labelBackgroundColor=none;" parent="1" vertex="1">
          <mxGeometry x="1145" y="-1350" width="100" height="40" as="geometry" />
        </mxCell>
        <mxCell id="xQpF8UU6rT9dju9DQIWK-152" value="" style="endArrow=none;html=1;rounded=0;entryX=0.5;entryY=0;entryDx=0;entryDy=0;exitX=0.5;exitY=1;exitDx=0;exitDy=0;labelBackgroundColor=none;fontColor=default;" parent="1" source="xQpF8UU6rT9dju9DQIWK-150" target="xQpF8UU6rT9dju9DQIWK-147" edge="1">
          <mxGeometry relative="1" as="geometry">
            <mxPoint x="1050" y="-1410" as="sourcePoint" />
            <mxPoint x="1210" y="-1410" as="targetPoint" />
          </mxGeometry>
        </mxCell>
        <mxCell id="xQpF8UU6rT9dju9DQIWK-153" value="" style="endArrow=none;html=1;rounded=0;entryX=0;entryY=0.5;entryDx=0;entryDy=0;labelBackgroundColor=none;fontColor=default;" parent="1" source="xQpF8UU6rT9dju9DQIWK-147" target="xQpF8UU6rT9dju9DQIWK-151" edge="1">
          <mxGeometry relative="1" as="geometry">
            <mxPoint x="1090" y="-1285" as="sourcePoint" />
            <mxPoint x="1150.0000000000073" y="-1334.9999999999998" as="targetPoint" />
          </mxGeometry>
        </mxCell>
        <mxCell id="xQpF8UU6rT9dju9DQIWK-154" value="" style="endArrow=none;html=1;rounded=0;entryX=0;entryY=0;entryDx=0;entryDy=0;labelBackgroundColor=none;fontColor=default;" parent="1" target="xQpF8UU6rT9dju9DQIWK-147" edge="1">
          <mxGeometry relative="1" as="geometry">
            <mxPoint x="970" y="-1330" as="sourcePoint" />
            <mxPoint x="1120" y="-1370.43" as="targetPoint" />
          </mxGeometry>
        </mxCell>
        <mxCell id="xQpF8UU6rT9dju9DQIWK-161" value="order_date" style="ellipse;whiteSpace=wrap;html=1;align=center;labelBackgroundColor=none;" parent="1" vertex="1">
          <mxGeometry x="1540" y="370" width="100" height="40" as="geometry" />
        </mxCell>
        <mxCell id="xQpF8UU6rT9dju9DQIWK-162" value="order_amount" style="ellipse;whiteSpace=wrap;html=1;align=center;labelBackgroundColor=none;" parent="1" vertex="1">
          <mxGeometry x="1760" y="370" width="100" height="40" as="geometry" />
        </mxCell>
        <mxCell id="xQpF8UU6rT9dju9DQIWK-163" value="order_no" style="ellipse;whiteSpace=wrap;html=1;align=center;fontStyle=4;labelBackgroundColor=none;" parent="1" vertex="1">
          <mxGeometry x="1650" y="380" width="100" height="40" as="geometry" />
        </mxCell>
        <mxCell id="xQpF8UU6rT9dju9DQIWK-164" value="" style="endArrow=none;html=1;rounded=0;entryX=0.5;entryY=1;entryDx=0;entryDy=0;exitX=0.5;exitY=0;exitDx=0;exitDy=0;labelBackgroundColor=none;fontColor=default;" parent="1" source="xQpF8UU6rT9dju9DQIWK-163" target="xQpF8UU6rT9dju9DQIWK-69" edge="1">
          <mxGeometry relative="1" as="geometry">
            <mxPoint x="1680" y="440" as="sourcePoint" />
            <mxPoint x="1840" y="440" as="targetPoint" />
          </mxGeometry>
        </mxCell>
        <mxCell id="xQpF8UU6rT9dju9DQIWK-165" value="" style="endArrow=none;html=1;rounded=0;exitX=0.75;exitY=1;exitDx=0;exitDy=0;entryX=0.5;entryY=0;entryDx=0;entryDy=0;labelBackgroundColor=none;fontColor=default;" parent="1" source="xQpF8UU6rT9dju9DQIWK-69" target="xQpF8UU6rT9dju9DQIWK-162" edge="1">
          <mxGeometry relative="1" as="geometry">
            <mxPoint x="1710" y="400" as="sourcePoint" />
            <mxPoint x="1870" y="400" as="targetPoint" />
          </mxGeometry>
        </mxCell>
        <mxCell id="xQpF8UU6rT9dju9DQIWK-166" value="" style="endArrow=none;html=1;rounded=0;entryX=0.25;entryY=1;entryDx=0;entryDy=0;labelBackgroundColor=none;fontColor=default;exitX=0.5;exitY=0;exitDx=0;exitDy=0;" parent="1" source="xQpF8UU6rT9dju9DQIWK-161" target="xQpF8UU6rT9dju9DQIWK-69" edge="1">
          <mxGeometry relative="1" as="geometry">
            <mxPoint x="1590" y="430" as="sourcePoint" />
            <mxPoint x="1690" y="438.95000000000005" as="targetPoint" />
          </mxGeometry>
        </mxCell>
        <mxCell id="xQpF8UU6rT9dju9DQIWK-167" value="customer_phoneno" style="ellipse;shape=doubleEllipse;margin=3;whiteSpace=wrap;html=1;align=center;labelBackgroundColor=none;" parent="1" vertex="1">
          <mxGeometry x="1260" y="160" width="130" height="40" as="geometry" />
        </mxCell>
        <mxCell id="xQpF8UU6rT9dju9DQIWK-168" value="customer_email" style="ellipse;shape=doubleEllipse;margin=3;whiteSpace=wrap;html=1;align=center;labelBackgroundColor=none;" parent="1" vertex="1">
          <mxGeometry x="920" y="160" width="100" height="40" as="geometry" />
        </mxCell>
        <mxCell id="xQpF8UU6rT9dju9DQIWK-169" value="" style="endArrow=none;html=1;rounded=0;entryX=0.25;entryY=0;entryDx=0;entryDy=0;labelBackgroundColor=none;fontColor=default;" parent="1" target="xQpF8UU6rT9dju9DQIWK-73" edge="1">
          <mxGeometry relative="1" as="geometry">
            <mxPoint x="970" y="200" as="sourcePoint" />
            <mxPoint x="1120" y="200" as="targetPoint" />
          </mxGeometry>
        </mxCell>
        <mxCell id="xQpF8UU6rT9dju9DQIWK-170" value="" style="endArrow=none;html=1;rounded=0;entryX=0.5;entryY=1;entryDx=0;entryDy=0;labelBackgroundColor=none;fontColor=default;" parent="1" source="xQpF8UU6rT9dju9DQIWK-73" target="xQpF8UU6rT9dju9DQIWK-173" edge="1">
          <mxGeometry relative="1" as="geometry">
            <mxPoint x="1150" y="268.95000000000005" as="sourcePoint" />
            <mxPoint x="1310" y="268.95000000000005" as="targetPoint" />
          </mxGeometry>
        </mxCell>
        <mxCell id="xQpF8UU6rT9dju9DQIWK-171" value="" style="endArrow=none;html=1;rounded=0;entryX=0.5;entryY=1;entryDx=0;entryDy=0;labelBackgroundColor=none;fontColor=default;" parent="1" target="xQpF8UU6rT9dju9DQIWK-167" edge="1">
          <mxGeometry relative="1" as="geometry">
            <mxPoint x="1170" y="270" as="sourcePoint" />
            <mxPoint x="1330" y="270" as="targetPoint" />
          </mxGeometry>
        </mxCell>
        <mxCell id="xQpF8UU6rT9dju9DQIWK-173" value="customer_ID" style="ellipse;whiteSpace=wrap;html=1;align=center;fontStyle=4;labelBackgroundColor=none;" parent="1" vertex="1">
          <mxGeometry x="1100" y="100" width="100" height="40" as="geometry" />
        </mxCell>
        <mxCell id="xQpF8UU6rT9dju9DQIWK-174" value="customer_name" style="ellipse;whiteSpace=wrap;html=1;align=center;labelBackgroundColor=none;" parent="1" vertex="1">
          <mxGeometry x="980" y="360" width="100" height="40" as="geometry" />
        </mxCell>
        <mxCell id="xQpF8UU6rT9dju9DQIWK-176" value="customer_address" style="ellipse;whiteSpace=wrap;html=1;align=center;labelBackgroundColor=none;" parent="1" vertex="1">
          <mxGeometry x="1180" y="360" width="120" height="40" as="geometry" />
        </mxCell>
        <mxCell id="xQpF8UU6rT9dju9DQIWK-183" value="" style="endArrow=none;html=1;rounded=0;entryX=0.5;entryY=0;entryDx=0;entryDy=0;exitX=0.25;exitY=1;exitDx=0;exitDy=0;labelBackgroundColor=none;fontColor=default;" parent="1" source="xQpF8UU6rT9dju9DQIWK-73" target="xQpF8UU6rT9dju9DQIWK-174" edge="1">
          <mxGeometry relative="1" as="geometry">
            <mxPoint x="1115" y="344" as="sourcePoint" />
            <mxPoint x="960" y="420" as="targetPoint" />
          </mxGeometry>
        </mxCell>
        <mxCell id="xQpF8UU6rT9dju9DQIWK-184" value="" style="endArrow=none;html=1;rounded=0;entryX=0.5;entryY=0;entryDx=0;entryDy=0;exitX=0.25;exitY=1;exitDx=0;exitDy=0;labelBackgroundColor=none;fontColor=default;" parent="1" target="xQpF8UU6rT9dju9DQIWK-176" edge="1">
          <mxGeometry relative="1" as="geometry">
            <mxPoint x="1175" y="310" as="sourcePoint" />
            <mxPoint x="1010" y="420" as="targetPoint" />
          </mxGeometry>
        </mxCell>
        <mxCell id="xQpF8UU6rT9dju9DQIWK-196" value="payment_amount" style="ellipse;whiteSpace=wrap;html=1;align=center;labelBackgroundColor=none;" parent="1" vertex="1">
          <mxGeometry x="615" y="180" width="100" height="40" as="geometry" />
        </mxCell>
        <mxCell id="xQpF8UU6rT9dju9DQIWK-197" value="payment_date" style="ellipse;whiteSpace=wrap;html=1;align=center;labelBackgroundColor=none;" parent="1" vertex="1">
          <mxGeometry x="615" y="350" width="100" height="40" as="geometry" />
        </mxCell>
        <mxCell id="xQpF8UU6rT9dju9DQIWK-198" value="" style="endArrow=none;html=1;rounded=0;exitX=0.5;exitY=1;exitDx=0;exitDy=0;entryX=0.5;entryY=0;entryDx=0;entryDy=0;labelBackgroundColor=none;fontColor=default;" parent="1" source="xQpF8UU6rT9dju9DQIWK-196" target="xQpF8UU6rT9dju9DQIWK-86" edge="1">
          <mxGeometry relative="1" as="geometry">
            <mxPoint x="260" y="269.09000000000003" as="sourcePoint" />
            <mxPoint x="420" y="269.09000000000003" as="targetPoint" />
          </mxGeometry>
        </mxCell>
        <mxCell id="xQpF8UU6rT9dju9DQIWK-199" value="" style="endArrow=none;html=1;rounded=0;entryX=0.5;entryY=0;entryDx=0;entryDy=0;exitX=0.5;exitY=1;exitDx=0;exitDy=0;labelBackgroundColor=none;fontColor=default;" parent="1" source="xQpF8UU6rT9dju9DQIWK-86" target="xQpF8UU6rT9dju9DQIWK-197" edge="1">
          <mxGeometry relative="1" as="geometry">
            <mxPoint x="300" y="340" as="sourcePoint" />
            <mxPoint x="460" y="340" as="targetPoint" />
          </mxGeometry>
        </mxCell>
        <mxCell id="xQpF8UU6rT9dju9DQIWK-200" value="" style="endArrow=none;html=1;rounded=0;exitX=1;exitY=0.5;exitDx=0;exitDy=0;labelBackgroundColor=none;fontColor=default;" parent="1" edge="1">
          <mxGeometry relative="1" as="geometry">
            <mxPoint x="555" y="290.44000000000005" as="sourcePoint" />
            <mxPoint x="615" y="289.44000000000005" as="targetPoint" />
          </mxGeometry>
        </mxCell>
        <mxCell id="xQpF8UU6rT9dju9DQIWK-201" value="&lt;font style=&quot;font-size: 24px;&quot;&gt;E COMMERCE WEB APPLICATION&lt;/font&gt;" style="rounded=1;arcSize=10;whiteSpace=wrap;html=1;align=center;labelBackgroundColor=none;strokeColor=#0C0D0D;fillColor=#FF9999;" parent="1" vertex="1">
          <mxGeometry x="960" y="-380" width="370" height="70" as="geometry" />
        </mxCell>
        <mxCell id="xQpF8UU6rT9dju9DQIWK-195" value="payment_id" style="ellipse;whiteSpace=wrap;html=1;align=center;fontStyle=4;labelBackgroundColor=none;" parent="1" vertex="1">
          <mxGeometry x="470" y="270" width="100" height="40" as="geometry" />
        </mxCell>
        <mxCell id="BNbtslsG0jRAFfzVEcfy-1" value="" style="endArrow=none;html=1;rounded=0;entryX=0.5;entryY=1;entryDx=0;entryDy=0;labelBackgroundColor=none;fontColor=default;" parent="1" target="xQpF8UU6rT9dju9DQIWK-147" edge="1">
          <mxGeometry relative="1" as="geometry">
            <mxPoint x="1059.5700000000002" y="-1200" as="sourcePoint" />
            <mxPoint x="1059.5700000000002" y="-1284.13" as="targetPoint" />
          </mxGeometry>
        </mxCell>
        <mxCell id="xQpF8UU6rT9dju9DQIWK-147" value="supplier_name" style="ellipse;whiteSpace=wrap;html=1;align=center;labelBackgroundColor=none;" parent="1" vertex="1">
          <mxGeometry x="1010" y="-1290" width="100" height="40" as="geometry" />
        </mxCell>
        <mxCell id="BNbtslsG0jRAFfzVEcfy-2" style="edgeStyle=orthogonalEdgeStyle;rounded=0;orthogonalLoop=1;jettySize=auto;html=1;exitX=0.5;exitY=1;exitDx=0;exitDy=0;" parent="1" edge="1">
          <mxGeometry relative="1" as="geometry">
            <mxPoint x="1360" y="490" as="sourcePoint" />
            <mxPoint x="1360" y="490" as="targetPoint" />
          </mxGeometry>
        </mxCell>
        <mxCell id="BNbtslsG0jRAFfzVEcfy-4" value="" style="endArrow=none;html=1;rounded=0;exitX=0.5;exitY=0;exitDx=0;exitDy=0;labelBackgroundColor=none;fontColor=default;" parent="1" source="xQpF8UU6rT9dju9DQIWK-55" target="xQpF8UU6rT9dju9DQIWK-137" edge="1">
          <mxGeometry relative="1" as="geometry">
            <mxPoint x="1700" y="-430" as="sourcePoint" />
            <mxPoint x="1700" y="-500" as="targetPoint" />
          </mxGeometry>
        </mxCell>
        <mxCell id="xQpF8UU6rT9dju9DQIWK-137" value="total_price" style="ellipse;whiteSpace=wrap;html=1;align=center;labelBackgroundColor=none;" parent="1" vertex="1">
          <mxGeometry x="1650" y="-510" width="100" height="40" as="geometry" />
        </mxCell>
        <mxCell id="BNbtslsG0jRAFfzVEcfy-5" value="notations" style="swimlane;" parent="1" vertex="1">
          <mxGeometry x="490" y="-510" width="290" height="220" as="geometry">
            <mxRectangle x="260" y="-140" width="90" height="30" as="alternateBounds" />
          </mxGeometry>
        </mxCell>
        <mxCell id="BNbtslsG0jRAFfzVEcfy-6" value="Entity = yellow" style="rounded=0;whiteSpace=wrap;html=1;fillColor=#FFFF99;" parent="BNbtslsG0jRAFfzVEcfy-5" vertex="1">
          <mxGeometry y="35" width="290" height="30" as="geometry" />
        </mxCell>
        <mxCell id="BNbtslsG0jRAFfzVEcfy-8" value="Attribute = white" style="rounded=0;whiteSpace=wrap;html=1;fillColor=#FFFFFF;" parent="BNbtslsG0jRAFfzVEcfy-5" vertex="1">
          <mxGeometry y="80" width="290" height="30" as="geometry" />
        </mxCell>
        <mxCell id="BNbtslsG0jRAFfzVEcfy-9" value="Relation = orange" style="rounded=0;whiteSpace=wrap;html=1;fillColor=#FFCC99;" parent="BNbtslsG0jRAFfzVEcfy-5" vertex="1">
          <mxGeometry y="130" width="290" height="30" as="geometry" />
        </mxCell>
        <mxCell id="BNbtslsG0jRAFfzVEcfy-10" value="&lt;font style=&quot;font-size: 14px;&quot;&gt;It is just for understanding purpose = sky blue&lt;/font&gt;" style="rounded=0;whiteSpace=wrap;html=1;fillColor=#99FFFF;" parent="BNbtslsG0jRAFfzVEcfy-5" vertex="1">
          <mxGeometry y="180" width="290" height="30" as="geometry" />
        </mxCell>
      </root>
    </mxGraphModel>
  </diagram>
  <diagram id="BuobyODI3yga_q9DL-hh" name="0-level DFD for e-commerce web app">
    <mxGraphModel dx="750" dy="415" grid="1" gridSize="10" guides="1" tooltips="1" connect="1" arrows="1" fold="1" page="1" pageScale="1" pageWidth="850" pageHeight="1100" math="0" shadow="0">
      <root>
        <mxCell id="0" />
        <mxCell id="1" parent="0" />
        <mxCell id="hVzHloYe6c7dnT_Jwk49-1" value="e-commerce web application" style="ellipse;whiteSpace=wrap;html=1;aspect=fixed;" parent="1" vertex="1">
          <mxGeometry x="390" y="260" width="90" height="90" as="geometry" />
        </mxCell>
        <mxCell id="hVzHloYe6c7dnT_Jwk49-2" value="Admin" style="whiteSpace=wrap;html=1;" parent="1" vertex="1">
          <mxGeometry x="100" y="275" width="120" height="60" as="geometry" />
        </mxCell>
        <mxCell id="hVzHloYe6c7dnT_Jwk49-4" value="Customer" style="whiteSpace=wrap;html=1;" parent="1" vertex="1">
          <mxGeometry x="630" y="275" width="120" height="60" as="geometry" />
        </mxCell>
        <mxCell id="hVzHloYe6c7dnT_Jwk49-7" value="" style="text;strokeColor=none;fillColor=none;align=left;verticalAlign=middle;spacingTop=-1;spacingLeft=4;spacingRight=4;rotatable=0;labelPosition=right;points=[];portConstraint=eastwest;" parent="1" vertex="1">
          <mxGeometry x="500" y="230" width="20" height="14" as="geometry" />
        </mxCell>
        <mxCell id="hVzHloYe6c7dnT_Jwk49-9" value="" style="endArrow=classic;html=1;rounded=0;exitX=0.5;exitY=0;exitDx=0;exitDy=0;entryX=0.437;entryY=-0.001;entryDx=0;entryDy=0;entryPerimeter=0;" parent="1" source="hVzHloYe6c7dnT_Jwk49-2" target="hVzHloYe6c7dnT_Jwk49-1" edge="1">
          <mxGeometry relative="1" as="geometry">
            <mxPoint x="160" y="270" as="sourcePoint" />
            <mxPoint x="410" y="160" as="targetPoint" />
            <Array as="points">
              <mxPoint x="160" y="160" />
              <mxPoint x="430" y="160" />
            </Array>
          </mxGeometry>
        </mxCell>
        <mxCell id="hVzHloYe6c7dnT_Jwk49-11" value="add products and their details" style="edgeLabel;html=1;align=center;verticalAlign=middle;resizable=0;points=[];" parent="hVzHloYe6c7dnT_Jwk49-9" vertex="1" connectable="0">
          <mxGeometry x="0.0519" y="2" relative="1" as="geometry">
            <mxPoint x="-14" y="2" as="offset" />
          </mxGeometry>
        </mxCell>
        <mxCell id="hVzHloYe6c7dnT_Jwk49-14" value="" style="endArrow=classic;html=1;rounded=0;entryX=0.225;entryY=0.079;entryDx=0;entryDy=0;entryPerimeter=0;exitX=0.83;exitY=-0.007;exitDx=0;exitDy=0;exitPerimeter=0;" parent="1" source="hVzHloYe6c7dnT_Jwk49-2" target="hVzHloYe6c7dnT_Jwk49-1" edge="1">
          <mxGeometry width="50" height="50" relative="1" as="geometry">
            <mxPoint x="200" y="275" as="sourcePoint" />
            <mxPoint x="250" y="225" as="targetPoint" />
            <Array as="points">
              <mxPoint x="200" y="200" />
              <mxPoint x="410" y="200" />
              <mxPoint x="410" y="260" />
            </Array>
          </mxGeometry>
        </mxCell>
        <mxCell id="hVzHloYe6c7dnT_Jwk49-17" value="login" style="edgeLabel;html=1;align=center;verticalAlign=middle;resizable=0;points=[];" parent="hVzHloYe6c7dnT_Jwk49-14" vertex="1" connectable="0">
          <mxGeometry x="-0.0224" y="1" relative="1" as="geometry">
            <mxPoint as="offset" />
          </mxGeometry>
        </mxCell>
        <mxCell id="hVzHloYe6c7dnT_Jwk49-18" value="" style="endArrow=classic;html=1;rounded=0;entryX=0.781;entryY=0.09;entryDx=0;entryDy=0;entryPerimeter=0;" parent="1" target="hVzHloYe6c7dnT_Jwk49-1" edge="1">
          <mxGeometry width="50" height="50" relative="1" as="geometry">
            <mxPoint x="680" y="275" as="sourcePoint" />
            <mxPoint x="710" y="237.18" as="targetPoint" />
            <Array as="points">
              <mxPoint x="680" y="200" />
              <mxPoint x="460" y="200" />
              <mxPoint x="460" y="260" />
            </Array>
          </mxGeometry>
        </mxCell>
        <mxCell id="hVzHloYe6c7dnT_Jwk49-19" value="login/signup" style="edgeLabel;html=1;align=center;verticalAlign=middle;resizable=0;points=[];" parent="hVzHloYe6c7dnT_Jwk49-18" vertex="1" connectable="0">
          <mxGeometry x="-0.0224" y="1" relative="1" as="geometry">
            <mxPoint x="-4" as="offset" />
          </mxGeometry>
        </mxCell>
        <mxCell id="hVzHloYe6c7dnT_Jwk49-21" value="" style="endArrow=classic;html=1;rounded=0;exitX=0.75;exitY=0;exitDx=0;exitDy=0;entryX=0.668;entryY=0.029;entryDx=0;entryDy=0;entryPerimeter=0;" parent="1" source="hVzHloYe6c7dnT_Jwk49-4" target="hVzHloYe6c7dnT_Jwk49-1" edge="1">
          <mxGeometry width="50" height="50" relative="1" as="geometry">
            <mxPoint x="684.9599999999998" y="275.00000000000006" as="sourcePoint" />
            <mxPoint x="450" y="260" as="targetPoint" />
            <Array as="points">
              <mxPoint x="720" y="160" />
              <mxPoint x="450.28" y="160.42" />
            </Array>
          </mxGeometry>
        </mxCell>
        <mxCell id="hVzHloYe6c7dnT_Jwk49-22" value="search products, purchase products" style="edgeLabel;html=1;align=center;verticalAlign=middle;resizable=0;points=[];" parent="hVzHloYe6c7dnT_Jwk49-21" vertex="1" connectable="0">
          <mxGeometry x="-0.0349" y="2" relative="1" as="geometry">
            <mxPoint x="-21" as="offset" />
          </mxGeometry>
        </mxCell>
        <mxCell id="hVzHloYe6c7dnT_Jwk49-23" value="" style="endArrow=classic;html=1;rounded=0;exitX=0.5;exitY=1;exitDx=0;exitDy=0;entryX=0.416;entryY=1.007;entryDx=0;entryDy=0;entryPerimeter=0;" parent="1" source="hVzHloYe6c7dnT_Jwk49-1" edge="1">
          <mxGeometry width="50" height="50" relative="1" as="geometry">
            <mxPoint x="470" y="349.9999999999999" as="sourcePoint" />
            <mxPoint x="722.0500000000001" y="335.00000000000006" as="targetPoint" />
            <Array as="points">
              <mxPoint x="435" y="440" />
              <mxPoint x="722.13" y="439.58" />
            </Array>
          </mxGeometry>
        </mxCell>
        <mxCell id="hVzHloYe6c7dnT_Jwk49-24" value="response for search products, payment details" style="edgeLabel;html=1;align=center;verticalAlign=middle;resizable=0;points=[];" parent="hVzHloYe6c7dnT_Jwk49-23" vertex="1" connectable="0">
          <mxGeometry x="-0.0714" y="2" relative="1" as="geometry">
            <mxPoint x="11" y="2" as="offset" />
          </mxGeometry>
        </mxCell>
        <mxCell id="hVzHloYe6c7dnT_Jwk49-25" value="" style="endArrow=classic;html=1;rounded=0;exitX=0.218;exitY=0.914;exitDx=0;exitDy=0;entryX=0.75;entryY=1;entryDx=0;entryDy=0;exitPerimeter=0;" parent="1" source="hVzHloYe6c7dnT_Jwk49-1" target="hVzHloYe6c7dnT_Jwk49-2" edge="1">
          <mxGeometry width="50" height="50" relative="1" as="geometry">
            <mxPoint x="280" y="380" as="sourcePoint" />
            <mxPoint x="210" y="340" as="targetPoint" />
            <Array as="points">
              <mxPoint x="410" y="370" />
              <mxPoint x="410" y="420" />
              <mxPoint x="190" y="420" />
            </Array>
          </mxGeometry>
        </mxCell>
        <mxCell id="hVzHloYe6c7dnT_Jwk49-26" value="customer information" style="edgeLabel;html=1;align=center;verticalAlign=middle;resizable=0;points=[];" parent="hVzHloYe6c7dnT_Jwk49-25" vertex="1" connectable="0">
          <mxGeometry x="-0.0158" relative="1" as="geometry">
            <mxPoint as="offset" />
          </mxGeometry>
        </mxCell>
        <mxCell id="hVzHloYe6c7dnT_Jwk49-27" value="" style="endArrow=classic;html=1;rounded=0;exitX=0.444;exitY=0.992;exitDx=0;exitDy=0;exitPerimeter=0;" parent="1" edge="1">
          <mxGeometry width="50" height="50" relative="1" as="geometry">
            <mxPoint x="424.96000000000004" y="349.28" as="sourcePoint" />
            <mxPoint x="155" y="335" as="targetPoint" />
            <Array as="points">
              <mxPoint x="425" y="440" />
              <mxPoint x="155" y="440" />
            </Array>
          </mxGeometry>
        </mxCell>
        <mxCell id="hVzHloYe6c7dnT_Jwk49-28" value="purchase order details" style="edgeLabel;html=1;align=center;verticalAlign=middle;resizable=0;points=[];" parent="hVzHloYe6c7dnT_Jwk49-27" vertex="1" connectable="0">
          <mxGeometry x="0.0387" y="1" relative="1" as="geometry">
            <mxPoint x="5" as="offset" />
          </mxGeometry>
        </mxCell>
        <mxCell id="hVzHloYe6c7dnT_Jwk49-33" value="0-level data flow diagram" style="rounded=0;whiteSpace=wrap;html=1;" parent="1" vertex="1">
          <mxGeometry x="360" y="540" width="160" height="30" as="geometry" />
        </mxCell>
        <mxCell id="lGHVL2Ndx7MozebPVHZL-1" value="" style="endArrow=classic;html=1;rounded=0;entryX=0.901;entryY=0.999;entryDx=0;entryDy=0;exitX=0.113;exitY=0.818;exitDx=0;exitDy=0;entryPerimeter=0;exitPerimeter=0;" parent="1" source="hVzHloYe6c7dnT_Jwk49-1" target="hVzHloYe6c7dnT_Jwk49-2" edge="1">
          <mxGeometry width="50" height="50" relative="1" as="geometry">
            <mxPoint x="260" y="340" as="sourcePoint" />
            <mxPoint x="310" y="290" as="targetPoint" />
            <Array as="points">
              <mxPoint x="400" y="380" />
              <mxPoint x="208" y="380" />
            </Array>
          </mxGeometry>
        </mxCell>
        <mxCell id="lGHVL2Ndx7MozebPVHZL-2" value="after login admin redirect&lt;br&gt;&amp;nbsp;to admin dashboard" style="edgeLabel;html=1;align=center;verticalAlign=middle;resizable=0;points=[];" parent="lGHVL2Ndx7MozebPVHZL-1" vertex="1" connectable="0">
          <mxGeometry x="0.138" relative="1" as="geometry">
            <mxPoint x="13" as="offset" />
          </mxGeometry>
        </mxCell>
        <mxCell id="lGHVL2Ndx7MozebPVHZL-3" value="" style="endArrow=classic;html=1;rounded=0;entryX=0.5;entryY=1;entryDx=0;entryDy=0;exitX=0.664;exitY=0.97;exitDx=0;exitDy=0;exitPerimeter=0;" parent="1" source="hVzHloYe6c7dnT_Jwk49-1" target="hVzHloYe6c7dnT_Jwk49-4" edge="1">
          <mxGeometry width="50" height="50" relative="1" as="geometry">
            <mxPoint x="450" y="350" as="sourcePoint" />
            <mxPoint x="580" y="320" as="targetPoint" />
            <Array as="points">
              <mxPoint x="450" y="400" />
              <mxPoint x="690" y="400" />
            </Array>
          </mxGeometry>
        </mxCell>
        <mxCell id="lGHVL2Ndx7MozebPVHZL-4" value="after login/signup customer&lt;br&gt;&amp;nbsp;redirect to homepage" style="edgeLabel;html=1;align=center;verticalAlign=middle;resizable=0;points=[];" parent="lGHVL2Ndx7MozebPVHZL-3" vertex="1" connectable="0">
          <mxGeometry x="-0.1486" y="1" relative="1" as="geometry">
            <mxPoint x="11" as="offset" />
          </mxGeometry>
        </mxCell>
      </root>
    </mxGraphModel>
  </diagram>
  <diagram id="OulpI6zXe5ZDNiUys3jJ" name="1-level DFD for e-commerce web app">
    <mxGraphModel dx="656" dy="1463" grid="1" gridSize="10" guides="1" tooltips="1" connect="1" arrows="1" fold="1" page="1" pageScale="1" pageWidth="850" pageHeight="1100" math="0" shadow="0">
      <root>
        <mxCell id="0" />
        <mxCell id="1" parent="0" />
        <mxCell id="pd99ZVEIu0o7ZYtYCi8W-1" value="customer" style="rounded=1;whiteSpace=wrap;html=1;" parent="1" vertex="1">
          <mxGeometry x="130" y="190" width="120" height="80" as="geometry" />
        </mxCell>
        <mxCell id="pd99ZVEIu0o7ZYtYCi8W-2" value="Authentication" style="ellipse;whiteSpace=wrap;html=1;aspect=fixed;" parent="1" vertex="1">
          <mxGeometry x="400" y="180" width="90" height="90" as="geometry" />
        </mxCell>
        <mxCell id="pd99ZVEIu0o7ZYtYCi8W-4" value="" style="endArrow=classic;html=1;rounded=0;entryX=0.088;entryY=0.242;entryDx=0;entryDy=0;entryPerimeter=0;" parent="1" target="pd99ZVEIu0o7ZYtYCi8W-2" edge="1">
          <mxGeometry width="50" height="50" relative="1" as="geometry">
            <mxPoint x="250" y="200" as="sourcePoint" />
            <mxPoint x="386.0400000000001" y="199.99999999999997" as="targetPoint" />
          </mxGeometry>
        </mxCell>
        <mxCell id="pd99ZVEIu0o7ZYtYCi8W-5" value="login request" style="edgeLabel;html=1;align=center;verticalAlign=middle;resizable=0;points=[];" parent="pd99ZVEIu0o7ZYtYCi8W-4" vertex="1" connectable="0">
          <mxGeometry x="-0.3961" relative="1" as="geometry">
            <mxPoint x="23" as="offset" />
          </mxGeometry>
        </mxCell>
        <mxCell id="pd99ZVEIu0o7ZYtYCi8W-6" value="" style="endArrow=classic;html=1;rounded=0;entryX=1;entryY=0.822;entryDx=0;entryDy=0;entryPerimeter=0;exitX=0;exitY=1;exitDx=0;exitDy=0;" parent="1" source="pd99ZVEIu0o7ZYtYCi8W-2" target="pd99ZVEIu0o7ZYtYCi8W-1" edge="1">
          <mxGeometry width="50" height="50" relative="1" as="geometry">
            <mxPoint x="420" y="260" as="sourcePoint" />
            <mxPoint x="340" y="220" as="targetPoint" />
          </mxGeometry>
        </mxCell>
        <mxCell id="pd99ZVEIu0o7ZYtYCi8W-7" value="response" style="edgeLabel;html=1;align=center;verticalAlign=middle;resizable=0;points=[];" parent="pd99ZVEIu0o7ZYtYCi8W-6" vertex="1" connectable="0">
          <mxGeometry x="0.2994" relative="1" as="geometry">
            <mxPoint x="13" as="offset" />
          </mxGeometry>
        </mxCell>
        <mxCell id="pd99ZVEIu0o7ZYtYCi8W-8" value="customer db" style="shape=partialRectangle;whiteSpace=wrap;html=1;left=0;right=0;fillColor=none;" parent="1" vertex="1">
          <mxGeometry x="385" y="380" width="120" height="40" as="geometry" />
        </mxCell>
        <mxCell id="pd99ZVEIu0o7ZYtYCi8W-9" value="" style="endArrow=classic;html=1;rounded=0;entryX=0;entryY=1;entryDx=0;entryDy=0;exitX=0.234;exitY=0.011;exitDx=0;exitDy=0;exitPerimeter=0;" parent="1" source="pd99ZVEIu0o7ZYtYCi8W-8" target="pd99ZVEIu0o7ZYtYCi8W-2" edge="1">
          <mxGeometry width="50" height="50" relative="1" as="geometry">
            <mxPoint x="419.56000000000006" y="380.00000000000006" as="sourcePoint" />
            <mxPoint x="420.88" y="261.79" as="targetPoint" />
          </mxGeometry>
        </mxCell>
        <mxCell id="pd99ZVEIu0o7ZYtYCi8W-11" value="request &lt;br&gt;for data" style="edgeLabel;html=1;align=center;verticalAlign=middle;resizable=0;points=[];" parent="pd99ZVEIu0o7ZYtYCi8W-9" vertex="1" connectable="0">
          <mxGeometry x="-0.0221" y="-1" relative="1" as="geometry">
            <mxPoint as="offset" />
          </mxGeometry>
        </mxCell>
        <mxCell id="pd99ZVEIu0o7ZYtYCi8W-12" value="" style="endArrow=classic;html=1;rounded=0;exitX=1;exitY=1;exitDx=0;exitDy=0;entryX=0.75;entryY=0;entryDx=0;entryDy=0;" parent="1" source="pd99ZVEIu0o7ZYtYCi8W-2" target="pd99ZVEIu0o7ZYtYCi8W-8" edge="1">
          <mxGeometry width="50" height="50" relative="1" as="geometry">
            <mxPoint x="480.80999999999995" y="266.7900000000001" as="sourcePoint" />
            <mxPoint x="479.9999999999999" y="380" as="targetPoint" />
          </mxGeometry>
        </mxCell>
        <mxCell id="pd99ZVEIu0o7ZYtYCi8W-13" value="response" style="edgeLabel;html=1;align=center;verticalAlign=middle;resizable=0;points=[];" parent="pd99ZVEIu0o7ZYtYCi8W-12" vertex="1" connectable="0">
          <mxGeometry x="-0.0777" y="1" relative="1" as="geometry">
            <mxPoint as="offset" />
          </mxGeometry>
        </mxCell>
        <mxCell id="pd99ZVEIu0o7ZYtYCi8W-14" value="" style="endArrow=classic;html=1;rounded=0;exitX=1;exitY=0.5;exitDx=0;exitDy=0;entryX=0.003;entryY=0.557;entryDx=0;entryDy=0;entryPerimeter=0;" parent="1" source="pd99ZVEIu0o7ZYtYCi8W-1" target="pd99ZVEIu0o7ZYtYCi8W-2" edge="1">
          <mxGeometry width="50" height="50" relative="1" as="geometry">
            <mxPoint x="370" y="300" as="sourcePoint" />
            <mxPoint x="420" y="250" as="targetPoint" />
          </mxGeometry>
        </mxCell>
        <mxCell id="pd99ZVEIu0o7ZYtYCi8W-15" value="signup" style="edgeLabel;html=1;align=center;verticalAlign=middle;resizable=0;points=[];" parent="pd99ZVEIu0o7ZYtYCi8W-14" vertex="1" connectable="0">
          <mxGeometry x="-0.0941" relative="1" as="geometry">
            <mxPoint as="offset" />
          </mxGeometry>
        </mxCell>
        <mxCell id="pd99ZVEIu0o7ZYtYCi8W-18" value="" style="endArrow=classic;html=1;rounded=0;exitX=1;exitY=0.5;exitDx=0;exitDy=0;entryX=1;entryY=0.5;entryDx=0;entryDy=0;" parent="1" source="pd99ZVEIu0o7ZYtYCi8W-2" target="pd99ZVEIu0o7ZYtYCi8W-8" edge="1">
          <mxGeometry width="50" height="50" relative="1" as="geometry">
            <mxPoint x="480" y="290" as="sourcePoint" />
            <mxPoint x="530" y="240" as="targetPoint" />
            <Array as="points">
              <mxPoint x="560" y="225" />
              <mxPoint x="560" y="400" />
            </Array>
          </mxGeometry>
        </mxCell>
        <mxCell id="pd99ZVEIu0o7ZYtYCi8W-19" value="store register&amp;nbsp;&lt;br&gt;data" style="edgeLabel;html=1;align=center;verticalAlign=middle;resizable=0;points=[];" parent="pd99ZVEIu0o7ZYtYCi8W-18" vertex="1" connectable="0">
          <mxGeometry x="0.0332" relative="1" as="geometry">
            <mxPoint y="10" as="offset" />
          </mxGeometry>
        </mxCell>
        <mxCell id="pd99ZVEIu0o7ZYtYCi8W-20" value="view product" style="ellipse;whiteSpace=wrap;html=1;aspect=fixed;" parent="1" vertex="1">
          <mxGeometry x="700" y="190" width="80" height="80" as="geometry" />
        </mxCell>
        <mxCell id="pd99ZVEIu0o7ZYtYCi8W-21" value="" style="endArrow=classic;html=1;rounded=0;exitX=1;exitY=0.5;exitDx=0;exitDy=0;entryX=-0.002;entryY=0.436;entryDx=0;entryDy=0;entryPerimeter=0;" parent="1" source="pd99ZVEIu0o7ZYtYCi8W-2" target="pd99ZVEIu0o7ZYtYCi8W-20" edge="1">
          <mxGeometry width="50" height="50" relative="1" as="geometry">
            <mxPoint x="480" y="200" as="sourcePoint" />
            <mxPoint x="530" y="150" as="targetPoint" />
          </mxGeometry>
        </mxCell>
        <mxCell id="pd99ZVEIu0o7ZYtYCi8W-22" value="" style="endArrow=classic;html=1;rounded=0;exitX=0.5;exitY=1;exitDx=0;exitDy=0;entryX=0.5;entryY=0;entryDx=0;entryDy=0;" parent="1" source="pd99ZVEIu0o7ZYtYCi8W-28" target="pd99ZVEIu0o7ZYtYCi8W-27" edge="1">
          <mxGeometry width="50" height="50" relative="1" as="geometry">
            <mxPoint x="870" y="110" as="sourcePoint" />
            <mxPoint x="920" y="60" as="targetPoint" />
          </mxGeometry>
        </mxCell>
        <mxCell id="pd99ZVEIu0o7ZYtYCi8W-49" value="product details" style="edgeLabel;html=1;align=center;verticalAlign=middle;resizable=0;points=[];" parent="pd99ZVEIu0o7ZYtYCi8W-22" vertex="1" connectable="0">
          <mxGeometry x="-0.0744" relative="1" as="geometry">
            <mxPoint as="offset" />
          </mxGeometry>
        </mxCell>
        <mxCell id="pd99ZVEIu0o7ZYtYCi8W-23" value="" style="endArrow=classic;html=1;rounded=0;entryX=0;entryY=0.5;entryDx=0;entryDy=0;" parent="1" target="pd99ZVEIu0o7ZYtYCi8W-28" edge="1">
          <mxGeometry width="50" height="50" relative="1" as="geometry">
            <mxPoint x="780" y="230" as="sourcePoint" />
            <mxPoint x="830" y="180" as="targetPoint" />
          </mxGeometry>
        </mxCell>
        <mxCell id="pd99ZVEIu0o7ZYtYCi8W-24" value="" style="endArrow=classic;html=1;rounded=0;exitX=0.75;exitY=0;exitDx=0;exitDy=0;entryX=0.5;entryY=0;entryDx=0;entryDy=0;" parent="1" source="pd99ZVEIu0o7ZYtYCi8W-1" target="pd99ZVEIu0o7ZYtYCi8W-20" edge="1">
          <mxGeometry width="50" height="50" relative="1" as="geometry">
            <mxPoint x="230" y="190" as="sourcePoint" />
            <mxPoint x="820" y="120" as="targetPoint" />
            <Array as="points">
              <mxPoint x="220" y="120" />
              <mxPoint x="740" y="120" />
            </Array>
          </mxGeometry>
        </mxCell>
        <mxCell id="pd99ZVEIu0o7ZYtYCi8W-25" value="view product without sign in" style="edgeLabel;html=1;align=center;verticalAlign=middle;resizable=0;points=[];" parent="pd99ZVEIu0o7ZYtYCi8W-24" vertex="1" connectable="0">
          <mxGeometry x="-0.0069" relative="1" as="geometry">
            <mxPoint as="offset" />
          </mxGeometry>
        </mxCell>
        <mxCell id="pd99ZVEIu0o7ZYtYCi8W-27" value="payment" style="ellipse;whiteSpace=wrap;html=1;aspect=fixed;" parent="1" vertex="1">
          <mxGeometry x="920" y="400" width="80" height="80" as="geometry" />
        </mxCell>
        <mxCell id="pd99ZVEIu0o7ZYtYCi8W-28" value="add to cart" style="ellipse;whiteSpace=wrap;html=1;aspect=fixed;" parent="1" vertex="1">
          <mxGeometry x="920" y="190" width="80" height="80" as="geometry" />
        </mxCell>
        <mxCell id="pd99ZVEIu0o7ZYtYCi8W-29" value="Buy Now" style="ellipse;whiteSpace=wrap;html=1;aspect=fixed;" parent="1" vertex="1">
          <mxGeometry x="700" y="400" width="80" height="80" as="geometry" />
        </mxCell>
        <mxCell id="pd99ZVEIu0o7ZYtYCi8W-30" value="" style="endArrow=classic;html=1;rounded=0;entryX=0.5;entryY=0;entryDx=0;entryDy=0;" parent="1" target="pd99ZVEIu0o7ZYtYCi8W-29" edge="1">
          <mxGeometry width="50" height="50" relative="1" as="geometry">
            <mxPoint x="740" y="270" as="sourcePoint" />
            <mxPoint x="790" y="220" as="targetPoint" />
          </mxGeometry>
        </mxCell>
        <mxCell id="pd99ZVEIu0o7ZYtYCi8W-31" value="" style="endArrow=classic;html=1;rounded=0;entryX=0;entryY=0.5;entryDx=0;entryDy=0;exitX=1;exitY=0.5;exitDx=0;exitDy=0;" parent="1" source="pd99ZVEIu0o7ZYtYCi8W-29" target="pd99ZVEIu0o7ZYtYCi8W-27" edge="1">
          <mxGeometry width="50" height="50" relative="1" as="geometry">
            <mxPoint x="780" y="400" as="sourcePoint" />
            <mxPoint x="830" y="350" as="targetPoint" />
          </mxGeometry>
        </mxCell>
        <mxCell id="SXTUwIojQ3R_Ie4m-AOd-3" value="product details" style="edgeLabel;html=1;align=center;verticalAlign=middle;resizable=0;points=[];" parent="pd99ZVEIu0o7ZYtYCi8W-31" vertex="1" connectable="0">
          <mxGeometry x="-0.2014" y="-1" relative="1" as="geometry">
            <mxPoint x="14" y="-1" as="offset" />
          </mxGeometry>
        </mxCell>
        <mxCell id="pd99ZVEIu0o7ZYtYCi8W-33" value="receipt" style="ellipse;whiteSpace=wrap;html=1;aspect=fixed;" parent="1" vertex="1">
          <mxGeometry x="920" y="590" width="80" height="80" as="geometry" />
        </mxCell>
        <mxCell id="pd99ZVEIu0o7ZYtYCi8W-34" value="" style="endArrow=classic;html=1;rounded=0;entryX=0.5;entryY=0;entryDx=0;entryDy=0;exitX=0.5;exitY=1;exitDx=0;exitDy=0;" parent="1" source="pd99ZVEIu0o7ZYtYCi8W-27" target="pd99ZVEIu0o7ZYtYCi8W-33" edge="1">
          <mxGeometry width="50" height="50" relative="1" as="geometry">
            <mxPoint x="900" y="520" as="sourcePoint" />
            <mxPoint x="1040" y="520" as="targetPoint" />
          </mxGeometry>
        </mxCell>
        <mxCell id="pd99ZVEIu0o7ZYtYCi8W-35" value="receipt generation" style="edgeLabel;html=1;align=center;verticalAlign=middle;resizable=0;points=[];" parent="pd99ZVEIu0o7ZYtYCi8W-34" vertex="1" connectable="0">
          <mxGeometry x="-0.0952" relative="1" as="geometry">
            <mxPoint as="offset" />
          </mxGeometry>
        </mxCell>
        <mxCell id="pd99ZVEIu0o7ZYtYCi8W-37" value="admin" style="rounded=1;whiteSpace=wrap;html=1;" parent="1" vertex="1">
          <mxGeometry x="377.5" y="-340" width="125" height="80" as="geometry" />
        </mxCell>
        <mxCell id="pd99ZVEIu0o7ZYtYCi8W-39" value="Authentication" style="ellipse;whiteSpace=wrap;html=1;aspect=fixed;" parent="1" vertex="1">
          <mxGeometry x="390" y="-120" width="100" height="100" as="geometry" />
        </mxCell>
        <mxCell id="pd99ZVEIu0o7ZYtYCi8W-40" value="" style="endArrow=classic;html=1;rounded=0;exitX=0.78;exitY=1.002;exitDx=0;exitDy=0;entryX=1;entryY=0;entryDx=0;entryDy=0;exitPerimeter=0;" parent="1" source="pd99ZVEIu0o7ZYtYCi8W-37" target="pd99ZVEIu0o7ZYtYCi8W-39" edge="1">
          <mxGeometry width="50" height="50" relative="1" as="geometry">
            <mxPoint x="440" y="-170" as="sourcePoint" />
            <mxPoint x="490" y="-220" as="targetPoint" />
          </mxGeometry>
        </mxCell>
        <mxCell id="pd99ZVEIu0o7ZYtYCi8W-43" value="login" style="edgeLabel;html=1;align=center;verticalAlign=middle;resizable=0;points=[];" parent="pd99ZVEIu0o7ZYtYCi8W-40" vertex="1" connectable="0">
          <mxGeometry x="-0.0729" y="1" relative="1" as="geometry">
            <mxPoint y="-1" as="offset" />
          </mxGeometry>
        </mxCell>
        <mxCell id="pd99ZVEIu0o7ZYtYCi8W-41" value="" style="endArrow=classic;html=1;rounded=0;exitX=0;exitY=0;exitDx=0;exitDy=0;entryX=0.21;entryY=0.998;entryDx=0;entryDy=0;entryPerimeter=0;" parent="1" source="pd99ZVEIu0o7ZYtYCi8W-39" target="pd99ZVEIu0o7ZYtYCi8W-37" edge="1">
          <mxGeometry width="50" height="50" relative="1" as="geometry">
            <mxPoint x="400" y="-100" as="sourcePoint" />
            <mxPoint x="400" y="-260" as="targetPoint" />
          </mxGeometry>
        </mxCell>
        <mxCell id="pd99ZVEIu0o7ZYtYCi8W-42" value="response" style="edgeLabel;html=1;align=center;verticalAlign=middle;resizable=0;points=[];" parent="pd99ZVEIu0o7ZYtYCi8W-41" vertex="1" connectable="0">
          <mxGeometry x="0.0365" relative="1" as="geometry">
            <mxPoint x="-4" y="-4" as="offset" />
          </mxGeometry>
        </mxCell>
        <mxCell id="pd99ZVEIu0o7ZYtYCi8W-44" value="admin db" style="shape=partialRectangle;whiteSpace=wrap;html=1;left=0;right=0;fillColor=none;" parent="1" vertex="1">
          <mxGeometry x="720" y="-90" width="120" height="40" as="geometry" />
        </mxCell>
        <mxCell id="pd99ZVEIu0o7ZYtYCi8W-47" value="" style="endArrow=classic;html=1;rounded=0;exitX=1;exitY=0.5;exitDx=0;exitDy=0;entryX=0;entryY=0.5;entryDx=0;entryDy=0;" parent="1" source="pd99ZVEIu0o7ZYtYCi8W-39" target="pd99ZVEIu0o7ZYtYCi8W-44" edge="1">
          <mxGeometry width="50" height="50" relative="1" as="geometry">
            <mxPoint x="520" y="-60" as="sourcePoint" />
            <mxPoint x="570" y="-110" as="targetPoint" />
          </mxGeometry>
        </mxCell>
        <mxCell id="pd99ZVEIu0o7ZYtYCi8W-48" value="admin authentication from admin db" style="edgeLabel;html=1;align=center;verticalAlign=middle;resizable=0;points=[];" parent="pd99ZVEIu0o7ZYtYCi8W-47" vertex="1" connectable="0">
          <mxGeometry x="-0.2951" y="-1" relative="1" as="geometry">
            <mxPoint x="23" y="-1" as="offset" />
          </mxGeometry>
        </mxCell>
        <mxCell id="pd99ZVEIu0o7ZYtYCi8W-50" value="" style="endArrow=classic;html=1;rounded=0;entryX=0.5;entryY=1;entryDx=0;entryDy=0;exitX=0;exitY=0.5;exitDx=0;exitDy=0;" parent="1" source="pd99ZVEIu0o7ZYtYCi8W-33" target="pd99ZVEIu0o7ZYtYCi8W-1" edge="1">
          <mxGeometry width="50" height="50" relative="1" as="geometry">
            <mxPoint x="190" y="640" as="sourcePoint" />
            <mxPoint x="190" y="270" as="targetPoint" />
            <Array as="points">
              <mxPoint x="190" y="630" />
            </Array>
          </mxGeometry>
        </mxCell>
        <mxCell id="pd99ZVEIu0o7ZYtYCi8W-51" value="receipt send to customer" style="edgeLabel;html=1;align=center;verticalAlign=middle;resizable=0;points=[];" parent="pd99ZVEIu0o7ZYtYCi8W-50" vertex="1" connectable="0">
          <mxGeometry x="-0.1538" y="1" relative="1" as="geometry">
            <mxPoint x="97" y="-1" as="offset" />
          </mxGeometry>
        </mxCell>
        <mxCell id="pd99ZVEIu0o7ZYtYCi8W-52" value="" style="endArrow=classic;html=1;rounded=0;entryX=1;entryY=0.75;entryDx=0;entryDy=0;exitX=1;exitY=0.5;exitDx=0;exitDy=0;" parent="1" source="pd99ZVEIu0o7ZYtYCi8W-27" target="pd99ZVEIu0o7ZYtYCi8W-37" edge="1">
          <mxGeometry width="50" height="50" relative="1" as="geometry">
            <mxPoint x="827.5" y="440.0000000000002" as="sourcePoint" />
            <mxPoint x="330" y="-320" as="targetPoint" />
            <Array as="points">
              <mxPoint x="1040" y="440" />
              <mxPoint x="1040" y="-280" />
            </Array>
          </mxGeometry>
        </mxCell>
        <mxCell id="pd99ZVEIu0o7ZYtYCi8W-53" value="after payment admin review &lt;br&gt;the order to ensure its accuracy, &lt;br&gt;product availability, and payment &lt;br&gt;authorization" style="edgeLabel;html=1;align=center;verticalAlign=middle;resizable=0;points=[];" parent="pd99ZVEIu0o7ZYtYCi8W-52" vertex="1" connectable="0">
          <mxGeometry x="-0.2783" y="-1" relative="1" as="geometry">
            <mxPoint x="-6" as="offset" />
          </mxGeometry>
        </mxCell>
        <mxCell id="pd99ZVEIu0o7ZYtYCi8W-54" value="placed order successfully" style="ellipse;whiteSpace=wrap;html=1;aspect=fixed;" parent="1" vertex="1">
          <mxGeometry x="920" y="780" width="80" height="80" as="geometry" />
        </mxCell>
        <mxCell id="pd99ZVEIu0o7ZYtYCi8W-55" value="" style="endArrow=classic;html=1;rounded=0;exitX=1;exitY=0.25;exitDx=0;exitDy=0;entryX=1;entryY=0.5;entryDx=0;entryDy=0;" parent="1" source="pd99ZVEIu0o7ZYtYCi8W-37" target="pd99ZVEIu0o7ZYtYCi8W-54" edge="1">
          <mxGeometry width="50" height="50" relative="1" as="geometry">
            <mxPoint x="570" y="-330" as="sourcePoint" />
            <mxPoint x="1070" y="812.39990234375" as="targetPoint" />
            <Array as="points">
              <mxPoint x="1190" y="-320" />
              <mxPoint x="1190" y="100" />
              <mxPoint x="1190" y="820" />
            </Array>
          </mxGeometry>
        </mxCell>
        <mxCell id="pd99ZVEIu0o7ZYtYCi8W-56" value="if all the things are right admin &lt;br&gt;confirms the order" style="edgeLabel;html=1;align=center;verticalAlign=middle;resizable=0;points=[];" parent="pd99ZVEIu0o7ZYtYCi8W-55" vertex="1" connectable="0">
          <mxGeometry x="0.1377" relative="1" as="geometry">
            <mxPoint as="offset" />
          </mxGeometry>
        </mxCell>
        <mxCell id="pd99ZVEIu0o7ZYtYCi8W-57" value="" style="endArrow=classic;html=1;rounded=0;exitX=0.5;exitY=1;exitDx=0;exitDy=0;" parent="1" source="pd99ZVEIu0o7ZYtYCi8W-33" target="pd99ZVEIu0o7ZYtYCi8W-54" edge="1">
          <mxGeometry width="50" height="50" relative="1" as="geometry">
            <mxPoint x="960" y="720" as="sourcePoint" />
            <mxPoint x="1010" y="670" as="targetPoint" />
          </mxGeometry>
        </mxCell>
        <mxCell id="pd99ZVEIu0o7ZYtYCi8W-58" value="feedback" style="ellipse;whiteSpace=wrap;html=1;aspect=fixed;" parent="1" vertex="1">
          <mxGeometry x="120" y="-340" width="80" height="80" as="geometry" />
        </mxCell>
        <mxCell id="pd99ZVEIu0o7ZYtYCi8W-59" value="" style="endArrow=classic;html=1;rounded=0;entryX=0.5;entryY=1;entryDx=0;entryDy=0;exitX=0.25;exitY=0;exitDx=0;exitDy=0;" parent="1" source="pd99ZVEIu0o7ZYtYCi8W-1" target="pd99ZVEIu0o7ZYtYCi8W-58" edge="1">
          <mxGeometry width="50" height="50" relative="1" as="geometry">
            <mxPoint x="150" y="-110" as="sourcePoint" />
            <mxPoint x="200" y="-160" as="targetPoint" />
          </mxGeometry>
        </mxCell>
        <mxCell id="pd99ZVEIu0o7ZYtYCi8W-64" value="customer give his feedback" style="edgeLabel;html=1;align=center;verticalAlign=middle;resizable=0;points=[];" parent="pd99ZVEIu0o7ZYtYCi8W-59" vertex="1" connectable="0">
          <mxGeometry x="0.3298" relative="1" as="geometry">
            <mxPoint as="offset" />
          </mxGeometry>
        </mxCell>
        <mxCell id="pd99ZVEIu0o7ZYtYCi8W-60" value="" style="endArrow=classic;html=1;rounded=0;entryX=0;entryY=0.25;entryDx=0;entryDy=0;exitX=0.94;exitY=0.27;exitDx=0;exitDy=0;exitPerimeter=0;" parent="1" source="pd99ZVEIu0o7ZYtYCi8W-58" target="pd99ZVEIu0o7ZYtYCi8W-37" edge="1">
          <mxGeometry width="50" height="50" relative="1" as="geometry">
            <mxPoint x="200" y="-317.84" as="sourcePoint" />
            <mxPoint x="375.375" y="-319.99999999999994" as="targetPoint" />
          </mxGeometry>
        </mxCell>
        <mxCell id="pd99ZVEIu0o7ZYtYCi8W-62" value="send to admin" style="edgeLabel;html=1;align=center;verticalAlign=middle;resizable=0;points=[];" parent="pd99ZVEIu0o7ZYtYCi8W-60" vertex="1" connectable="0">
          <mxGeometry x="-0.1916" y="1" relative="1" as="geometry">
            <mxPoint x="11" as="offset" />
          </mxGeometry>
        </mxCell>
        <mxCell id="pd99ZVEIu0o7ZYtYCi8W-61" value="" style="endArrow=classic;html=1;rounded=0;exitX=0;exitY=0.75;exitDx=0;exitDy=0;entryX=0.932;entryY=0.749;entryDx=0;entryDy=0;entryPerimeter=0;" parent="1" source="pd99ZVEIu0o7ZYtYCi8W-37" target="pd99ZVEIu0o7ZYtYCi8W-58" edge="1">
          <mxGeometry width="50" height="50" relative="1" as="geometry">
            <mxPoint x="230" y="-230" as="sourcePoint" />
            <mxPoint x="200" y="-280" as="targetPoint" />
          </mxGeometry>
        </mxCell>
        <mxCell id="pd99ZVEIu0o7ZYtYCi8W-63" value="admin response" style="edgeLabel;html=1;align=center;verticalAlign=middle;resizable=0;points=[];" parent="pd99ZVEIu0o7ZYtYCi8W-61" vertex="1" connectable="0">
          <mxGeometry x="0.136" y="1" relative="1" as="geometry">
            <mxPoint x="6" as="offset" />
          </mxGeometry>
        </mxCell>
        <mxCell id="pd99ZVEIu0o7ZYtYCi8W-65" value="1-level data flow diagram" style="rounded=0;whiteSpace=wrap;html=1;" parent="1" vertex="1">
          <mxGeometry x="450" y="720" width="210" height="60" as="geometry" />
        </mxCell>
      </root>
    </mxGraphModel>
  </diagram>
  <diagram id="SrRxaMQp_klzkEoRnnF0" name="use-case diagram">
    <mxGraphModel dx="794" dy="456" grid="1" gridSize="10" guides="1" tooltips="1" connect="1" arrows="1" fold="1" page="1" pageScale="1" pageWidth="850" pageHeight="1100" math="0" shadow="0">
      <root>
        <mxCell id="0" />
        <mxCell id="1" parent="0" />
        <mxCell id="rdoNuIYKpZ5sZBWyAydN-1" value="&lt;font style=&quot;font-size: 14px;&quot;&gt;login&lt;/font&gt;" style="rounded=1;whiteSpace=wrap;html=1;" parent="1" vertex="1">
          <mxGeometry x="365" y="140" width="120" height="60" as="geometry" />
        </mxCell>
        <mxCell id="rdoNuIYKpZ5sZBWyAydN-2" value="&lt;font style=&quot;font-size: 14px;&quot;&gt;Add category&lt;/font&gt;" style="rounded=1;whiteSpace=wrap;html=1;" parent="1" vertex="1">
          <mxGeometry x="365" y="280" width="120" height="60" as="geometry" />
        </mxCell>
        <mxCell id="rdoNuIYKpZ5sZBWyAydN-12" value="&lt;font style=&quot;font-size: 14px;&quot;&gt;Add items&lt;/font&gt;" style="rounded=1;whiteSpace=wrap;html=1;" parent="1" vertex="1">
          <mxGeometry x="365" y="420" width="120" height="60" as="geometry" />
        </mxCell>
        <mxCell id="rdoNuIYKpZ5sZBWyAydN-13" value="&lt;font style=&quot;font-size: 14px;&quot;&gt;Manage items&lt;/font&gt;" style="rounded=1;whiteSpace=wrap;html=1;" parent="1" vertex="1">
          <mxGeometry x="365" y="560" width="120" height="60" as="geometry" />
        </mxCell>
        <mxCell id="rdoNuIYKpZ5sZBWyAydN-14" value="&lt;font style=&quot;font-size: 14px;&quot;&gt;Manage order&lt;/font&gt;" style="rounded=1;whiteSpace=wrap;html=1;" parent="1" vertex="1">
          <mxGeometry x="365" y="700" width="120" height="60" as="geometry" />
        </mxCell>
        <mxCell id="rdoNuIYKpZ5sZBWyAydN-15" value="&lt;font style=&quot;font-size: 14px;&quot;&gt;Registeration&lt;/font&gt;" style="rounded=1;whiteSpace=wrap;html=1;" parent="1" vertex="1">
          <mxGeometry x="365" y="840" width="120" height="60" as="geometry" />
        </mxCell>
        <mxCell id="rdoNuIYKpZ5sZBWyAydN-16" value="&lt;font style=&quot;font-size: 14px;&quot;&gt;view Item&lt;/font&gt;" style="rounded=1;whiteSpace=wrap;html=1;" parent="1" vertex="1">
          <mxGeometry x="365" y="980" width="120" height="60" as="geometry" />
        </mxCell>
        <mxCell id="rdoNuIYKpZ5sZBWyAydN-17" value="&lt;font style=&quot;font-size: 14px;&quot;&gt;Make order&lt;/font&gt;" style="rounded=1;whiteSpace=wrap;html=1;" parent="1" vertex="1">
          <mxGeometry x="360" y="1120" width="120" height="60" as="geometry" />
        </mxCell>
        <mxCell id="rdoNuIYKpZ5sZBWyAydN-18" value="&lt;font style=&quot;font-size: 14px;&quot;&gt;Make Payment&lt;/font&gt;" style="rounded=1;whiteSpace=wrap;html=1;" parent="1" vertex="1">
          <mxGeometry x="360" y="1260" width="120" height="60" as="geometry" />
        </mxCell>
        <mxCell id="rdoNuIYKpZ5sZBWyAydN-19" value="&lt;font style=&quot;font-size: 14px;&quot;&gt;Change password&lt;/font&gt;" style="rounded=1;whiteSpace=wrap;html=1;" parent="1" vertex="1">
          <mxGeometry x="360" y="1400" width="120" height="60" as="geometry" />
        </mxCell>
        <mxCell id="rdoNuIYKpZ5sZBWyAydN-20" value="&lt;font style=&quot;font-size: 18px;&quot;&gt;Admin&lt;/font&gt;" style="shape=umlActor;verticalLabelPosition=bottom;verticalAlign=top;html=1;" parent="1" vertex="1">
          <mxGeometry x="70" y="370" width="50" height="80" as="geometry" />
        </mxCell>
        <mxCell id="rdoNuIYKpZ5sZBWyAydN-21" value="&lt;font style=&quot;font-size: 18px;&quot;&gt;User&lt;/font&gt;" style="shape=umlActor;verticalLabelPosition=bottom;verticalAlign=top;html=1;" parent="1" vertex="1">
          <mxGeometry x="710" y="420" width="50" height="80" as="geometry" />
        </mxCell>
        <mxCell id="rdoNuIYKpZ5sZBWyAydN-23" value="" style="endArrow=classic;html=1;rounded=0;entryX=1;entryY=0.5;entryDx=0;entryDy=0;" parent="1" target="rdoNuIYKpZ5sZBWyAydN-1" edge="1">
          <mxGeometry width="50" height="50" relative="1" as="geometry">
            <mxPoint x="700" y="450" as="sourcePoint" />
            <mxPoint x="600" y="290" as="targetPoint" />
          </mxGeometry>
        </mxCell>
        <mxCell id="rdoNuIYKpZ5sZBWyAydN-24" value="" style="endArrow=classic;html=1;rounded=0;entryX=1;entryY=0.5;entryDx=0;entryDy=0;" parent="1" target="rdoNuIYKpZ5sZBWyAydN-15" edge="1">
          <mxGeometry width="50" height="50" relative="1" as="geometry">
            <mxPoint x="700" y="450" as="sourcePoint" />
            <mxPoint x="520" y="700" as="targetPoint" />
          </mxGeometry>
        </mxCell>
        <mxCell id="rdoNuIYKpZ5sZBWyAydN-25" value="" style="endArrow=classic;html=1;rounded=0;entryX=1;entryY=0.5;entryDx=0;entryDy=0;" parent="1" target="rdoNuIYKpZ5sZBWyAydN-19" edge="1">
          <mxGeometry width="50" height="50" relative="1" as="geometry">
            <mxPoint x="700" y="450" as="sourcePoint" />
            <mxPoint x="870" y="730" as="targetPoint" />
          </mxGeometry>
        </mxCell>
        <mxCell id="rdoNuIYKpZ5sZBWyAydN-26" value="" style="endArrow=classic;html=1;rounded=0;entryX=1;entryY=0.5;entryDx=0;entryDy=0;" parent="1" target="rdoNuIYKpZ5sZBWyAydN-17" edge="1">
          <mxGeometry width="50" height="50" relative="1" as="geometry">
            <mxPoint x="700" y="450" as="sourcePoint" />
            <mxPoint x="710" y="570" as="targetPoint" />
          </mxGeometry>
        </mxCell>
        <mxCell id="rdoNuIYKpZ5sZBWyAydN-27" value="" style="endArrow=classic;html=1;rounded=0;entryX=1;entryY=0.5;entryDx=0;entryDy=0;" parent="1" target="rdoNuIYKpZ5sZBWyAydN-18" edge="1">
          <mxGeometry width="50" height="50" relative="1" as="geometry">
            <mxPoint x="700" y="450" as="sourcePoint" />
            <mxPoint x="740" y="720" as="targetPoint" />
          </mxGeometry>
        </mxCell>
        <mxCell id="rdoNuIYKpZ5sZBWyAydN-28" value="" style="endArrow=classic;html=1;rounded=0;entryX=1;entryY=0.5;entryDx=0;entryDy=0;" parent="1" target="rdoNuIYKpZ5sZBWyAydN-16" edge="1">
          <mxGeometry width="50" height="50" relative="1" as="geometry">
            <mxPoint x="700" y="450" as="sourcePoint" />
            <mxPoint x="680" y="640" as="targetPoint" />
          </mxGeometry>
        </mxCell>
        <mxCell id="rdoNuIYKpZ5sZBWyAydN-29" value="" style="endArrow=classic;html=1;rounded=0;entryX=0;entryY=0.5;entryDx=0;entryDy=0;" parent="1" target="rdoNuIYKpZ5sZBWyAydN-1" edge="1">
          <mxGeometry width="50" height="50" relative="1" as="geometry">
            <mxPoint x="130" y="410" as="sourcePoint" />
            <mxPoint x="530" y="130" as="targetPoint" />
          </mxGeometry>
        </mxCell>
        <mxCell id="rdoNuIYKpZ5sZBWyAydN-30" value="" style="endArrow=classic;html=1;rounded=0;entryX=0;entryY=0.5;entryDx=0;entryDy=0;" parent="1" target="rdoNuIYKpZ5sZBWyAydN-2" edge="1">
          <mxGeometry width="50" height="50" relative="1" as="geometry">
            <mxPoint x="130" y="410" as="sourcePoint" />
            <mxPoint x="600" y="70" as="targetPoint" />
          </mxGeometry>
        </mxCell>
        <mxCell id="rdoNuIYKpZ5sZBWyAydN-31" value="" style="endArrow=classic;html=1;rounded=0;entryX=0;entryY=0.5;entryDx=0;entryDy=0;" parent="1" target="rdoNuIYKpZ5sZBWyAydN-13" edge="1">
          <mxGeometry width="50" height="50" relative="1" as="geometry">
            <mxPoint x="130" y="410" as="sourcePoint" />
            <mxPoint x="325" y="520" as="targetPoint" />
          </mxGeometry>
        </mxCell>
        <mxCell id="rdoNuIYKpZ5sZBWyAydN-32" value="" style="endArrow=classic;html=1;rounded=0;entryX=0;entryY=0.5;entryDx=0;entryDy=0;" parent="1" target="rdoNuIYKpZ5sZBWyAydN-12" edge="1">
          <mxGeometry width="50" height="50" relative="1" as="geometry">
            <mxPoint x="130" y="410" as="sourcePoint" />
            <mxPoint x="385" y="330" as="targetPoint" />
          </mxGeometry>
        </mxCell>
        <mxCell id="rdoNuIYKpZ5sZBWyAydN-34" value="&#xa;&lt;span style=&quot;color: rgb(0, 0, 0); font-family: Helvetica; font-size: 18px; font-style: normal; font-variant-ligatures: normal; font-variant-caps: normal; font-weight: 400; letter-spacing: normal; orphans: 2; text-align: center; text-indent: 0px; text-transform: none; widows: 2; word-spacing: 0px; -webkit-text-stroke-width: 0px; background-color: rgb(251, 251, 251); text-decoration-thickness: initial; text-decoration-style: initial; text-decoration-color: initial; float: none; display: inline !important;&quot;&gt;use case diagram&lt;/span&gt;&#xa;&#xa;" style="rounded=0;whiteSpace=wrap;html=1;" parent="1" vertex="1">
          <mxGeometry x="310" y="1550" width="230" height="60" as="geometry" />
        </mxCell>
      </root>
    </mxGraphModel>
  </diagram>
</mxfile>
